  0
SECTION
  2
HEADER
  9
$ACADVER
  1
AC1009
  9
$INSBASE
 10
0.0
 20
0.0
 30
0.0
  9
$EXTMIN
 10
-0.02499868
 20
-0.0249986800000102
 30
0.0
  9
$EXTMAX
 10
219.6249989000000085
 20
42.3250004399999966
 30
0.0
  9
$LIMMIN
 10
-0.0499999
 20
-4.218734259999998
  9
$LIMMAX
 10
219.6500001199999872
 20
42.3500016599999896
  9
$ORTHOMODE
 70
     0
  9
$REGENMODE
 70
     1
  9
$FILLMODE
 70
     1
  9
$QTEXTMODE
 70
     0
  9
$MIRRTEXT
 70
     1
  9
$DRAGMODE
 70
     2
  9
$LTSCALE
 40
1.0
  9
$OSMODE
 70
    37
  9
$ATTMODE
 70
     1
  9
$TEXTSIZE
 40
2.5
  9
$TRACEWID
 40
1.0
  9
$TEXTSTYLE
  7
STANDARD
  9
$CLAYER
  8
0
  9
$CELTYPE
  6
BYLAYER
  9
$CECOLOR
 62
   256
  9
$DIMSCALE
 40
1.0
  9
$DIMASZ
 40
2.5
  9
$DIMEXO
 40
0.625
  9
$DIMDLI
 40
3.75
  9
$DIMRND
 40
0.0
  9
$DIMDLE
 40
0.0
  9
$DIMEXE
 40
1.25
  9
$DIMTP
 40
0.0
  9
$DIMTM
 40
0.0
  9
$DIMTXT
 40
2.5
  9
$DIMCEN
 40
2.5
  9
$DIMTSZ
 40
0.0
  9
$DIMTOL
 70
     0
  9
$DIMLIM
 70
     0
  9
$DIMTIH
 70
     0
  9
$DIMTOH
 70
     0
  9
$DIMSE1
 70
     0
  9
$DIMSE2
 70
     0
  9
$DIMTAD
 70
     1
  9
$DIMZIN
 70
     8
  9
$DIMBLK
  1

  9
$DIMASO
 70
     1
  9
$DIMSHO
 70
     1
  9
$DIMPOST
  1

  9
$DIMAPOST
  1

  9
$DIMALT
 70
     0
  9
$DIMALTD
 70
     3
  9
$DIMALTF
 40
0.03937007874016
  9
$DIMLFAC
 40
1.0
  9
$DIMTOFL
 70
     1
  9
$DIMTVP
 40
0.0
  9
$DIMTIX
 70
     0
  9
$DIMSOXD
 70
     0
  9
$DIMSAH
 70
     0
  9
$DIMBLK1
  1

  9
$DIMBLK2
  1

  9
$DIMSTYLE
  2
ISO-25
  9
$DIMCLRD
 70
     0
  9
$DIMCLRE
 70
     0
  9
$DIMCLRT
 70
     0
  9
$DIMTFAC
 40
1.0
  9
$DIMGAP
 40
0.625
  9
$LUNITS
 70
     2
  9
$LUPREC
 70
     4
  9
$SKETCHINC
 40
1.0
  9
$FILLETRAD
 40
10.0
  9
$AUNITS
 70
     0
  9
$AUPREC
 70
     0
  9
$MENU
  1
.
  9
$ELEVATION
 40
0.0
  9
$PELEVATION
 40
0.0
  9
$THICKNESS
 40
0.0
  9
$LIMCHECK
 70
     0
  9
$BLIPMODE
 70
     0
  9
$CHAMFERA
 40
0.0
  9
$CHAMFERB
 40
0.0
  9
$SKPOLY
 70
     0
  9
$TDCREATE
 40
2460004.6768055558204651
  9
$TDUPDATE
 40
2460014.6681018518283963
  9
$TDINDWG
 40
0.1130555671
  9
$TDUSRTIMER
 40
0.1130555671
  9
$USRTIMER
 70
     1
  9
$ANGBASE
 50
0.0
  9
$ANGDIR
 70
     0
  9
$PDMODE
 70
     0
  9
$PDSIZE
 40
0.0
  9
$PLINEWID
 40
0.0
  9
$COORDS
 70
     1
  9
$SPLFRAME
 70
     0
  9
$SPLINETYPE
 70
     6
  9
$SPLINESEGS
 70
     8
  9
$ATTDIA
 70
     1
  9
$ATTREQ
 70
     1
  9
$HANDLING
 70
     1
  9
$HANDSEED
  5
15CC
  9
$SURFTAB1
 70
     6
  9
$SURFTAB2
 70
     6
  9
$SURFTYPE
 70
     6
  9
$SURFU
 70
     6
  9
$SURFV
 70
     6
  9
$UCSNAME
  2

  9
$UCSORG
 10
0.0
 20
0.0
 30
0.0
  9
$UCSXDIR
 10
1.0
 20
0.0
 30
0.0
  9
$UCSYDIR
 10
0.0
 20
1.0
 30
0.0
  9
$PUCSNAME
  2

  9
$PUCSORG
 10
0.0
 20
0.0
 30
0.0
  9
$PUCSXDIR
 10
1.0
 20
0.0
 30
0.0
  9
$PUCSYDIR
 10
0.0
 20
1.0
 30
0.0
  9
$USERI1
 70
     0
  9
$USERI2
 70
     0
  9
$USERI3
 70
     0
  9
$USERI4
 70
     0
  9
$USERI5
 70
     0
  9
$USERR1
 40
0.0
  9
$USERR2
 40
0.0
  9
$USERR3
 40
0.0
  9
$USERR4
 40
0.0
  9
$USERR5
 40
0.0
  9
$WORLDVIEW
 70
     1
  9
$SHADEDGE
 70
     3
  9
$SHADEDIF
 70
    70
  9
$TILEMODE
 70
     1
  9
$MAXACTVP
 70
    64
  9
$PLIMCHECK
 70
     0
  9
$PEXTMIN
 10
1.0000000000000000E+20
 20
1.0000000000000000E+20
 30
1.0000000000000000E+20
  9
$PEXTMAX
 10
-1.0000000000000000E+20
 20
-1.0000000000000000E+20
 30
-1.0000000000000000E+20
  9
$PLIMMIN
 10
0.0
 20
0.0
  9
$PLIMMAX
 10
420.0
 20
297.0
  9
$UNITMODE
 70
     0
  9
$VISRETAIN
 70
     1
  9
$PLINEGEN
 70
     0
  9
$PSLTSCALE
 70
     1
  0
ENDSEC
  0
SECTION
  2
TABLES
  0
TABLE
  2
VPORT
 70
     1
  0
VPORT
  2
*ACTIVE
 70
     0
 10
0.0
 20
0.0
 11
1.0
 21
1.0
 12
83.884966316746727
 22
5.5959505012751256
 13
0.0
 23
0.0
 14
10.0
 24
10.0
 15
10.0
 25
10.0
 16
0.0
 26
0.0
 36
1.0
 17
0.0
 27
0.0
 37
0.0
 40
65.8870811196269415
 41
2.6453488372093021
 42
50.0
 43
0.0
 44
0.0
 50
0.0
 51
0.0
 71
     0
 72
   100
 73
     1
 74
     3
 75
     0
 76
     0
 77
     0
 78
     0
  0
ENDTAB
  0
TABLE
  2
LTYPE
 70
     2
  0
LTYPE
  2
CONTINUOUS
 70
     0
  3
Solid line
 72
    65
 73
     0
 40
0.0
  0
ENDTAB
  0
TABLE
  2
LAYER
 70
     5
  0
LAYER
  2
0
 70
     0
 62
     7
  6
CONTINUOUS
  0
LAYER
  2
TOPLAYER
 70
     0
 62
     1
  6
CONTINUOUS
  0
LAYER
  2
MECHANICAL30
 70
     0
 62
    56
  6
CONTINUOUS
  0
LAYER
  2
PADHOLELAYER
 70
     0
 62
   156
  6
CONTINUOUS
  0
LAYER
  2
VIAHOLELAYER
 70
     0
 62
    16
  6
CONTINUOUS
  0
ENDTAB
  0
TABLE
  2
STYLE
 70
     2
  0
STYLE
  2
STANDARD
 70
     0
 40
0.0
 41
1.0
 50
0.0
 71
     0
 42
2.5
  3
txt
  4

  0
STYLE
  2
ANNOTATIVE
 70
     0
 40
0.0
 41
1.0
 50
0.0
 71
     0
 42
0.2
  3
txt
  4

  0
ENDTAB
  0
TABLE
  2
VIEW
 70
     0
  0
ENDTAB
  0
TABLE
  2
UCS
 70
     0
  0
ENDTAB
  0
TABLE
  2
APPID
 70
     7
  0
APPID
  2
ACAD
 70
     0
  0
APPID
  2
ACADANNOTATIVE
 70
     0
  0
APPID
  2
ACAD_EXEMPT_FROM_CAD_STANDARDS
 70
     0
  0
APPID
  2
ACAD_DSTYLE_DIMRADIAL_EXTENSION
 70
     0
  0
APPID
  2
ACAD_TC
 70
     0
  0
APPID
  2
ACAD_NAV_VCDISPLAY
 70
     0
  0
APPID
  2
ACAD_MLEADERVER
 70
     0
  0
ENDTAB
  0
TABLE
  2
DIMSTYLE
 70
     4
  0
DIMSTYLE
  2
STANDARD
 70
     0
  3

  4

  5

  6

  7

 40
1.0
 41
0.18
 42
0.0625
 43
0.38
 44
0.18
 45
0.0
 46
0.0
 47
0.0
 48
0.0
140
0.18
141
0.09
142
0.0
143
25.3999999999999986
144
1.0
145
0.0
146
1.0
147
0.09
 71
     0
 72
     0
 73
     1
 74
     1
 75
     0
 76
     0
 77
     0
 78
     0
170
     0
171
     2
172
     0
173
     0
174
     0
175
     0
176
     0
177
     0
178
     0
  0
DIMSTYLE
  2
ANNOTATIVE
 70
     0
  3

  4

  5

  6

  7

 40
1.0
 41
0.18
 42
0.0625
 43
0.38
 44
0.18
 45
0.0
 46
0.0
 47
0.0
 48
0.0
140
0.18
141
0.09
142
0.0
143
25.3999999999999986
144
1.0
145
0.0
146
1.0
147
0.09
 71
     0
 72
     0
 73
     1
 74
     1
 75
     0
 76
     0
 77
     0
 78
     0
170
     0
171
     2
172
     0
173
     0
174
     0
175
     0
176
     0
177
     0
178
     0
  0
DIMSTYLE
  2
ISO-25
 70
     0
  3

  4

  5

  6

  7

 40
1.0
 41
2.5
 42
0.625
 43
3.75
 44
1.25
 45
0.0
 46
0.0
 47
0.0
 48
0.0
140
2.5
141
2.5
142
0.0
143
0.03937007874016
144
1.0
145
0.0
146
1.0
147
0.625
 71
     0
 72
     0
 73
     0
 74
     0
 75
     0
 76
     0
 77
     1
 78
     8
170
     0
171
     3
172
     1
173
     0
174
     0
175
     0
176
     0
177
     0
178
     0
  0
ENDTAB
  0
ENDSEC
  0
SECTION
  2
BLOCKS
  0
BLOCK
  8
0
  2
$MODEL_SPACE
 70
     0
 10
0.0
 20
0.0
 30
0.0
  3
$MODEL_SPACE
  1

  0
ENDBLK
  5
132A
  8
0
  0
BLOCK
 67
     1
  8
0
  2
$PAPER_SPACE
 70
     0
 10
0.0
 20
0.0
 30
0.0
  3
$PAPER_SPACE
  1

  0
ENDBLK
  5
1326
 67
     1
  8
0
  0
BLOCK
  8
0
  2
R0603_1
 70
     0
 10
0.0
 20
0.0
 30
0.0
  3
R0603_1
  1

  0
INSERT
  5
1BA
  8
0
  2
*U3
 10
0.0
 20
0.0
 30
0.0
  0
INSERT
  5
1BB
  8
TOPLAYER
  6
CONTINUOUS
 62
     1
  2
*U4
 10
0.0
 20
0.0
 30
0.0
1001
ACAD
1002
{
1000
R14_HATCH_DATA
1000
1BB
1011
1.0
1021
0.0
1031
0.0
1021
0.0
1031
0.0
1011
0.0
1021
0.0
1031
0.0
1021
1.0
1031
0.0
1011
0.0
1021
0.0
1031
0.0
1021
0.0
1031
1.0
1040
0.0
1010
0.0
1020
0.0
1030
1.0
1000
SOLID
1070
     1
1070
     1
1071
        1
1071
        1
1071
        4
1070
     1
1040
-1.1500015100000001
1040
0.45000037
1040
-0.3500005699999999
1040
0.45000037
1070
     1
1040
-0.35000057
1040
0.45000037
1040
-0.35000057
1040
-0.45000037
1070
     1
1040
-0.35000057
1040
-0.45000037
1040
-1.1500015100000001
1040
-0.45000037
1070
     1
1040
-1.1500015100000001
1040
-0.45000037
1040
-1.1500015100000001
1040
0.45000037
1071
        1
1005
1BA
1070
     0
1070
     1
1071
        0
1002
}
  0
INSERT
  5
1C0
  8
0
  2
*U5
 10
0.0
 20
0.0
 30
0.0
  0
INSERT
  5
1C1
  8
TOPLAYER
  6
CONTINUOUS
 62
     1
  2
*U6
 10
0.0
 20
0.0
 30
0.0
1001
ACAD
1002
{
1000
R14_HATCH_DATA
1000
1C1
1011
1.0
1021
0.0
1031
0.0
1021
0.0
1031
0.0
1011
0.0
1021
0.0
1031
0.0
1021
1.0
1031
0.0
1011
0.0
1021
0.0
1031
0.0
1021
0.0
1031
1.0
1040
0.0
1010
0.0
1020
0.0
1030
1.0
1000
SOLID
1070
     1
1070
     1
1071
        1
1071
        1
1071
        4
1070
     1
1040
0.35000057
1040
0.45000037
1040
1.1500015100000001
1040
0.45000037
1070
     1
1040
1.1500015100000001
1040
0.45000037
1040
1.1500015100000001
1040
-0.45000037
1070
     1
1040
1.1500015100000001
1040
-0.45000037
1040
0.3500005699999999
1040
-0.45000037
1070
     1
1040
0.35000057
1040
-0.45000037
1040
0.35000057
1040
0.45000037
1071
        1
1005
1C0
1070
     0
1070
     1
1071
        0
1002
}
  0
ENDBLK
  5
1B5
  8
0
  0
BLOCK
  8
0
  2
*U3
 70
     1
 10
0.0
 20
0.0
 30
0.0
  3
*U3
  1

  0
LINE
  5
F67
  8
TOPLAYER
 62
     1
 10
-1.1500015100000001
 20
0.45000037
 30
0.0
 11
-0.3500005699999999
 21
0.45000037
 31
0.0
210
0.0
220
0.0
230
-1.0
  0
LINE
  5
F68
  8
TOPLAYER
 62
     1
 10
-0.3500005699999999
 20
0.45000037
 30
0.0
 11
-0.3500005699999999
 21
-0.45000037
 31
0.0
210
0.0
220
0.0
230
-1.0
  0
LINE
  5
F69
  8
TOPLAYER
 62
     1
 10
-0.3500005699999999
 20
-0.45000037
 30
0.0
 11
-1.1500015100000001
 21
-0.45000037
 31
0.0
210
0.0
220
0.0
230
-1.0
  0
LINE
  5
F6A
  8
TOPLAYER
 62
     1
 10
-1.1500015100000001
 20
-0.45000037
 30
0.0
 11
-1.1500015100000001
 21
0.45000037
 31
0.0
210
0.0
220
0.0
230
-1.0
  0
ENDBLK
  5
F6C
  8
0
  0
BLOCK
  8
0
  2
*U4
 70
     1
 10
0.0
 20
0.0
 30
0.0
  3
*U4
  1

  0
SOLID
  5
F6E
  8
TOPLAYER
  6
CONTINUOUS
 62
     1
 10
1.1500015100000001
 20
0.45000037
 30
0.0
 11
0.35000057
 21
-0.45000037
 31
0.0
 12
1.1500015100000001
 22
-0.45000037
 32
0.0
 13
1.1500015100000001
 23
-0.45000037
 33
0.0
210
0.0
220
0.0
230
-1.0
  0
SOLID
  5
F6F
  8
TOPLAYER
  6
CONTINUOUS
 62
     1
 10
1.1500015100000001
 20
0.45000037
 30
0.0
 11
0.35000057
 21
0.45000037
 31
0.0
 12
0.35000057
 22
-0.45000037
 32
0.0
 13
0.35000057
 23
-0.45000037
 33
0.0
210
0.0
220
0.0
230
-1.0
  0
LINE
  5
F70
  8
TOPLAYER
  6
CONTINUOUS
 62
     1
 10
-1.1500015100000001
 20
-0.45000037
 30
0.0
 11
-1.1500015100000001
 21
0.45000037
 31
0.0
  0
LINE
  5
F71
  8
TOPLAYER
  6
CONTINUOUS
 62
     1
 10
-0.35000057
 20
0.45000037
 30
0.0
 11
-0.35000057
 21
-0.45000037
 31
0.0
  0
ENDBLK
  5
F73
  8
0
  0
BLOCK
  8
0
  2
*U5
 70
     1
 10
0.0
 20
0.0
 30
0.0
  3
*U5
  1

  0
LINE
  5
F75
  8
TOPLAYER
 62
     1
 10
0.3500005699999999
 20
0.45000037
 30
0.0
 11
1.1500015100000001
 21
0.45000037
 31
0.0
210
0.0
220
0.0
230
-1.0
  0
LINE
  5
F76
  8
TOPLAYER
 62
     1
 10
1.1500015100000001
 20
0.45000037
 30
0.0
 11
1.1500015100000001
 21
-0.45000037
 31
0.0
210
0.0
220
0.0
230
-1.0
  0
LINE
  5
F77
  8
TOPLAYER
 62
     1
 10
1.1500015100000001
 20
-0.45000037
 30
0.0
 11
0.3500005699999999
 21
-0.45000037
 31
0.0
210
0.0
220
0.0
230
-1.0
  0
LINE
  5
F78
  8
TOPLAYER
 62
     1
 10
0.3500005699999999
 20
-0.45000037
 30
0.0
 11
0.3500005699999999
 21
0.45000037
 31
0.0
210
0.0
220
0.0
230
-1.0
  0
ENDBLK
  5
F7A
  8
0
  0
BLOCK
  8
0
  2
*U6
 70
     1
 10
0.0
 20
0.0
 30
0.0
  3
*U6
  1

  0
SOLID
  5
F7C
  8
TOPLAYER
  6
CONTINUOUS
 62
     1
 10
-0.35000057
 20
0.45000037
 30
0.0
 11
-1.1500015100000001
 21
-0.45000037
 31
0.0
 12
-0.35000057
 22
-0.45000037
 32
0.0
 13
-0.35000057
 23
-0.45000037
 33
0.0
210
0.0
220
0.0
230
-1.0
  0
SOLID
  5
F7D
  8
TOPLAYER
  6
CONTINUOUS
 62
     1
 10
-0.35000057
 20
0.45000037
 30
0.0
 11
-1.1500015100000001
 21
0.45000037
 31
0.0
 12
-1.1500015100000001
 22
-0.45000037
 32
0.0
 13
-1.1500015100000001
 23
-0.45000037
 33
0.0
210
0.0
220
0.0
230
-1.0
  0
LINE
  5
F7E
  8
TOPLAYER
  6
CONTINUOUS
 62
     1
 10
0.35000057
 20
-0.45000037
 30
0.0
 11
0.35000057
 21
0.45000037
 31
0.0
  0
LINE
  5
F7F
  8
TOPLAYER
  6
CONTINUOUS
 62
     1
 10
1.1500015100000001
 20
0.45000037
 30
0.0
 11
1.1500015100000001
 21
-0.45000037
 31
0.0
  0
ENDBLK
  5
F81
  8
0
  0
BLOCK
  8
0
  2
R0603_2
 70
     0
 10
0.0
 20
0.0
 30
0.0
  3
R0603_2
  1

  0
INSERT
  5
1CA
  8
0
  2
*U8
 10
0.0
 20
0.0
 30
0.0
  0
INSERT
  5
1CB
  8
TOPLAYER
  6
CONTINUOUS
 62
     1
  2
*U9
 10
0.0
 20
0.0
 30
0.0
1001
ACAD
1002
{
1000
R14_HATCH_DATA
1000
1CB
1011
1.0
1021
0.0
1031
0.0
1021
0.0
1031
0.0
1011
0.0
1021
0.0
1031
0.0
1021
1.0
1031
0.0
1011
0.0
1021
0.0
1031
0.0
1021
0.0
1031
1.0
1040
0.0
1010
0.0
1020
0.0
1030
1.0
1000
SOLID
1070
     1
1070
     1
1071
        1
1071
        1
1071
        4
1070
     1
1040
-1.1500015100000001
1040
0.45000037
1040
-0.3500005699999999
1040
0.45000037
1070
     1
1040
-0.35000057
1040
0.45000037
1040
-0.35000057
1040
-0.45000037
1070
     1
1040
-0.35000057
1040
-0.45000037
1040
-1.1500015100000001
1040
-0.45000037
1070
     1
1040
-1.1500015100000001
1040
-0.45000037
1040
-1.1500015100000001
1040
0.45000037
1071
        1
1005
1CA
1070
     0
1070
     1
1071
        0
1002
}
  0
INSERT
  5
1D0
  8
0
  2
*U10
 10
0.0
 20
0.0
 30
0.0
  0
INSERT
  5
1D1
  8
TOPLAYER
  6
CONTINUOUS
 62
     1
  2
*U11
 10
0.0
 20
0.0
 30
0.0
1001
ACAD
1002
{
1000
R14_HATCH_DATA
1000
1D1
1011
1.0
1021
0.0
1031
0.0
1021
0.0
1031
0.0
1011
0.0
1021
0.0
1031
0.0
1021
1.0
1031
0.0
1011
0.0
1021
0.0
1031
0.0
1021
0.0
1031
1.0
1040
0.0
1010
0.0
1020
0.0
1030
1.0
1000
SOLID
1070
     1
1070
     1
1071
        1
1071
        1
1071
        4
1070
     1
1040
0.35000057
1040
0.45000037
1040
1.1500015100000001
1040
0.45000037
1070
     1
1040
1.1500015100000001
1040
0.45000037
1040
1.1500015100000001
1040
-0.45000037
1070
     1
1040
1.1500015100000001
1040
-0.45000037
1040
0.3500005699999999
1040
-0.45000037
1070
     1
1040
0.35000057
1040
-0.45000037
1040
0.35000057
1040
0.45000037
1071
        1
1005
1D0
1070
     0
1070
     1
1071
        0
1002
}
  0
ENDBLK
  5
1C5
  8
0
  0
BLOCK
  8
0
  2
*U8
 70
     1
 10
0.0
 20
0.0
 30
0.0
  3
*U8
  1

  0
LINE
  5
F83
  8
TOPLAYER
 62
     1
 10
-1.1500015100000001
 20
0.45000037
 30
0.0
 11
-0.3500005699999999
 21
0.45000037
 31
0.0
210
0.0
220
0.0
230
-1.0
  0
LINE
  5
F84
  8
TOPLAYER
 62
     1
 10
-0.3500005699999999
 20
0.45000037
 30
0.0
 11
-0.3500005699999999
 21
-0.45000037
 31
0.0
210
0.0
220
0.0
230
-1.0
  0
LINE
  5
F85
  8
TOPLAYER
 62
     1
 10
-0.3500005699999999
 20
-0.45000037
 30
0.0
 11
-1.1500015100000001
 21
-0.45000037
 31
0.0
210
0.0
220
0.0
230
-1.0
  0
LINE
  5
F86
  8
TOPLAYER
 62
     1
 10
-1.1500015100000001
 20
-0.45000037
 30
0.0
 11
-1.1500015100000001
 21
0.45000037
 31
0.0
210
0.0
220
0.0
230
-1.0
  0
ENDBLK
  5
F88
  8
0
  0
BLOCK
  8
0
  2
*U9
 70
     1
 10
0.0
 20
0.0
 30
0.0
  3
*U9
  1

  0
SOLID
  5
F8A
  8
TOPLAYER
  6
CONTINUOUS
 62
     1
 10
1.1500015100000001
 20
0.45000037
 30
0.0
 11
0.35000057
 21
-0.45000037
 31
0.0
 12
1.1500015100000001
 22
-0.45000037
 32
0.0
 13
1.1500015100000001
 23
-0.45000037
 33
0.0
210
0.0
220
0.0
230
-1.0
  0
SOLID
  5
F8B
  8
TOPLAYER
  6
CONTINUOUS
 62
     1
 10
1.1500015100000001
 20
0.45000037
 30
0.0
 11
0.35000057
 21
0.45000037
 31
0.0
 12
0.35000057
 22
-0.45000037
 32
0.0
 13
0.35000057
 23
-0.45000037
 33
0.0
210
0.0
220
0.0
230
-1.0
  0
LINE
  5
F8C
  8
TOPLAYER
  6
CONTINUOUS
 62
     1
 10
-1.1500015100000001
 20
-0.45000037
 30
0.0
 11
-1.1500015100000001
 21
0.45000037
 31
0.0
  0
LINE
  5
F8D
  8
TOPLAYER
  6
CONTINUOUS
 62
     1
 10
-0.35000057
 20
0.45000037
 30
0.0
 11
-0.35000057
 21
-0.45000037
 31
0.0
  0
ENDBLK
  5
F8F
  8
0
  0
BLOCK
  8
0
  2
*U10
 70
     1
 10
0.0
 20
0.0
 30
0.0
  3
*U10
  1

  0
LINE
  5
F91
  8
TOPLAYER
 62
     1
 10
0.3500005699999999
 20
0.45000037
 30
0.0
 11
1.1500015100000001
 21
0.45000037
 31
0.0
210
0.0
220
0.0
230
-1.0
  0
LINE
  5
F92
  8
TOPLAYER
 62
     1
 10
1.1500015100000001
 20
0.45000037
 30
0.0
 11
1.1500015100000001
 21
-0.45000037
 31
0.0
210
0.0
220
0.0
230
-1.0
  0
LINE
  5
F93
  8
TOPLAYER
 62
     1
 10
1.1500015100000001
 20
-0.45000037
 30
0.0
 11
0.3500005699999999
 21
-0.45000037
 31
0.0
210
0.0
220
0.0
230
-1.0
  0
LINE
  5
F94
  8
TOPLAYER
 62
     1
 10
0.3500005699999999
 20
-0.45000037
 30
0.0
 11
0.3500005699999999
 21
0.45000037
 31
0.0
210
0.0
220
0.0
230
-1.0
  0
ENDBLK
  5
F96
  8
0
  0
BLOCK
  8
0
  2
*U11
 70
     1
 10
0.0
 20
0.0
 30
0.0
  3
*U11
  1

  0
SOLID
  5
F98
  8
TOPLAYER
  6
CONTINUOUS
 62
     1
 10
-0.35000057
 20
0.45000037
 30
0.0
 11
-1.1500015100000001
 21
-0.45000037
 31
0.0
 12
-0.35000057
 22
-0.45000037
 32
0.0
 13
-0.35000057
 23
-0.45000037
 33
0.0
210
0.0
220
0.0
230
-1.0
  0
SOLID
  5
F99
  8
TOPLAYER
  6
CONTINUOUS
 62
     1
 10
-0.35000057
 20
0.45000037
 30
0.0
 11
-1.1500015100000001
 21
0.45000037
 31
0.0
 12
-1.1500015100000001
 22
-0.45000037
 32
0.0
 13
-1.1500015100000001
 23
-0.45000037
 33
0.0
210
0.0
220
0.0
230
-1.0
  0
LINE
  5
F9A
  8
TOPLAYER
  6
CONTINUOUS
 62
     1
 10
0.35000057
 20
-0.45000037
 30
0.0
 11
0.35000057
 21
0.45000037
 31
0.0
  0
LINE
  5
F9B
  8
TOPLAYER
  6
CONTINUOUS
 62
     1
 10
1.1500015100000001
 20
0.45000037
 30
0.0
 11
1.1500015100000001
 21
-0.45000037
 31
0.0
  0
ENDBLK
  5
F9D
  8
0
  0
BLOCK
  8
0
  2
R0603_3
 70
     0
 10
0.0
 20
0.0
 30
0.0
  3
R0603_3
  1

  0
INSERT
  5
1DA
  8
0
  2
*U13
 10
0.0
 20
0.0
 30
0.0
  0
INSERT
  5
1DB
  8
TOPLAYER
  6
CONTINUOUS
 62
     1
  2
*U14
 10
0.0
 20
0.0
 30
0.0
1001
ACAD
1002
{
1000
R14_HATCH_DATA
1000
1DB
1011
1.0
1021
0.0
1031
0.0
1021
0.0
1031
0.0
1011
0.0
1021
0.0
1031
0.0
1021
1.0
1031
0.0
1011
0.0
1021
0.0
1031
0.0
1021
0.0
1031
1.0
1040
0.0
1010
0.0
1020
0.0
1030
1.0
1000
SOLID
1070
     1
1070
     1
1071
        1
1071
        1
1071
        4
1070
     1
1040
-1.1500015100000001
1040
0.45000037
1040
-0.3500005699999999
1040
0.45000037
1070
     1
1040
-0.35000057
1040
0.45000037
1040
-0.35000057
1040
-0.45000037
1070
     1
1040
-0.35000057
1040
-0.45000037
1040
-1.1500015100000001
1040
-0.45000037
1070
     1
1040
-1.1500015100000001
1040
-0.45000037
1040
-1.1500015100000001
1040
0.45000037
1071
        1
1005
1DA
1070
     0
1070
     1
1071
        0
1002
}
  0
INSERT
  5
1E0
  8
0
  2
*U15
 10
0.0
 20
0.0
 30
0.0
  0
INSERT
  5
1E1
  8
TOPLAYER
  6
CONTINUOUS
 62
     1
  2
*U16
 10
0.0
 20
0.0
 30
0.0
1001
ACAD
1002
{
1000
R14_HATCH_DATA
1000
1E1
1011
1.0
1021
0.0
1031
0.0
1021
0.0
1031
0.0
1011
0.0
1021
0.0
1031
0.0
1021
1.0
1031
0.0
1011
0.0
1021
0.0
1031
0.0
1021
0.0
1031
1.0
1040
0.0
1010
0.0
1020
0.0
1030
1.0
1000
SOLID
1070
     1
1070
     1
1071
        1
1071
        1
1071
        4
1070
     1
1040
0.35000057
1040
0.45000037
1040
1.1500015100000001
1040
0.45000037
1070
     1
1040
1.1500015100000001
1040
0.45000037
1040
1.1500015100000001
1040
-0.45000037
1070
     1
1040
1.1500015100000001
1040
-0.45000037
1040
0.3500005699999999
1040
-0.45000037
1070
     1
1040
0.35000057
1040
-0.45000037
1040
0.35000057
1040
0.45000037
1071
        1
1005
1E0
1070
     0
1070
     1
1071
        0
1002
}
  0
ENDBLK
  5
1D5
  8
0
  0
BLOCK
  8
0
  2
*U13
 70
     1
 10
0.0
 20
0.0
 30
0.0
  3
*U13
  1

  0
LINE
  5
F9F
  8
TOPLAYER
 62
     1
 10
-1.1500015100000001
 20
0.45000037
 30
0.0
 11
-0.3500005699999999
 21
0.45000037
 31
0.0
210
0.0
220
0.0
230
-1.0
  0
LINE
  5
FA0
  8
TOPLAYER
 62
     1
 10
-0.3500005699999999
 20
0.45000037
 30
0.0
 11
-0.3500005699999999
 21
-0.45000037
 31
0.0
210
0.0
220
0.0
230
-1.0
  0
LINE
  5
FA1
  8
TOPLAYER
 62
     1
 10
-0.3500005699999999
 20
-0.45000037
 30
0.0
 11
-1.1500015100000001
 21
-0.45000037
 31
0.0
210
0.0
220
0.0
230
-1.0
  0
LINE
  5
FA2
  8
TOPLAYER
 62
     1
 10
-1.1500015100000001
 20
-0.45000037
 30
0.0
 11
-1.1500015100000001
 21
0.45000037
 31
0.0
210
0.0
220
0.0
230
-1.0
  0
ENDBLK
  5
FA4
  8
0
  0
BLOCK
  8
0
  2
*U14
 70
     1
 10
0.0
 20
0.0
 30
0.0
  3
*U14
  1

  0
SOLID
  5
FA6
  8
TOPLAYER
  6
CONTINUOUS
 62
     1
 10
1.1500015100000001
 20
0.45000037
 30
0.0
 11
0.35000057
 21
-0.45000037
 31
0.0
 12
1.1500015100000001
 22
-0.45000037
 32
0.0
 13
1.1500015100000001
 23
-0.45000037
 33
0.0
210
0.0
220
0.0
230
-1.0
  0
SOLID
  5
FA7
  8
TOPLAYER
  6
CONTINUOUS
 62
     1
 10
1.1500015100000001
 20
0.45000037
 30
0.0
 11
0.35000057
 21
0.45000037
 31
0.0
 12
0.35000057
 22
-0.45000037
 32
0.0
 13
0.35000057
 23
-0.45000037
 33
0.0
210
0.0
220
0.0
230
-1.0
  0
LINE
  5
FA8
  8
TOPLAYER
  6
CONTINUOUS
 62
     1
 10
-1.1500015100000001
 20
-0.45000037
 30
0.0
 11
-1.1500015100000001
 21
0.45000037
 31
0.0
  0
LINE
  5
FA9
  8
TOPLAYER
  6
CONTINUOUS
 62
     1
 10
-0.35000057
 20
0.45000037
 30
0.0
 11
-0.35000057
 21
-0.45000037
 31
0.0
  0
ENDBLK
  5
FAB
  8
0
  0
BLOCK
  8
0
  2
*U15
 70
     1
 10
0.0
 20
0.0
 30
0.0
  3
*U15
  1

  0
LINE
  5
FAD
  8
TOPLAYER
 62
     1
 10
0.3500005699999999
 20
0.45000037
 30
0.0
 11
1.1500015100000001
 21
0.45000037
 31
0.0
210
0.0
220
0.0
230
-1.0
  0
LINE
  5
FAE
  8
TOPLAYER
 62
     1
 10
1.1500015100000001
 20
0.45000037
 30
0.0
 11
1.1500015100000001
 21
-0.45000037
 31
0.0
210
0.0
220
0.0
230
-1.0
  0
LINE
  5
FAF
  8
TOPLAYER
 62
     1
 10
1.1500015100000001
 20
-0.45000037
 30
0.0
 11
0.3500005699999999
 21
-0.45000037
 31
0.0
210
0.0
220
0.0
230
-1.0
  0
LINE
  5
FB0
  8
TOPLAYER
 62
     1
 10
0.3500005699999999
 20
-0.45000037
 30
0.0
 11
0.3500005699999999
 21
0.45000037
 31
0.0
210
0.0
220
0.0
230
-1.0
  0
ENDBLK
  5
FB2
  8
0
  0
BLOCK
  8
0
  2
*U16
 70
     1
 10
0.0
 20
0.0
 30
0.0
  3
*U16
  1

  0
SOLID
  5
FB4
  8
TOPLAYER
  6
CONTINUOUS
 62
     1
 10
-0.35000057
 20
0.45000037
 30
0.0
 11
-1.1500015100000001
 21
-0.45000037
 31
0.0
 12
-0.35000057
 22
-0.45000037
 32
0.0
 13
-0.35000057
 23
-0.45000037
 33
0.0
210
0.0
220
0.0
230
-1.0
  0
SOLID
  5
FB5
  8
TOPLAYER
  6
CONTINUOUS
 62
     1
 10
-0.35000057
 20
0.45000037
 30
0.0
 11
-1.1500015100000001
 21
0.45000037
 31
0.0
 12
-1.1500015100000001
 22
-0.45000037
 32
0.0
 13
-1.1500015100000001
 23
-0.45000037
 33
0.0
210
0.0
220
0.0
230
-1.0
  0
LINE
  5
FB6
  8
TOPLAYER
  6
CONTINUOUS
 62
     1
 10
0.35000057
 20
-0.45000037
 30
0.0
 11
0.35000057
 21
0.45000037
 31
0.0
  0
LINE
  5
FB7
  8
TOPLAYER
  6
CONTINUOUS
 62
     1
 10
1.1500015100000001
 20
0.45000037
 30
0.0
 11
1.1500015100000001
 21
-0.45000037
 31
0.0
  0
ENDBLK
  5
FB9
  8
0
  0
BLOCK
  8
0
  2
R0603_4
 70
     0
 10
0.0
 20
0.0
 30
0.0
  3
R0603_4
  1

  0
INSERT
  5
1EA
  8
0
  2
*U18
 10
0.0
 20
0.0
 30
0.0
  0
INSERT
  5
1EB
  8
TOPLAYER
  6
CONTINUOUS
 62
     1
  2
*U19
 10
0.0
 20
0.0
 30
0.0
1001
ACAD
1002
{
1000
R14_HATCH_DATA
1000
1EB
1011
1.0
1021
0.0
1031
0.0
1021
0.0
1031
0.0
1011
0.0
1021
0.0
1031
0.0
1021
1.0
1031
0.0
1011
0.0
1021
0.0
1031
0.0
1021
0.0
1031
1.0
1040
0.0
1010
0.0
1020
0.0
1030
1.0
1000
SOLID
1070
     1
1070
     1
1071
        1
1071
        1
1071
        4
1070
     1
1040
-1.1500015100000001
1040
0.45000037
1040
-0.3500005699999999
1040
0.45000037
1070
     1
1040
-0.35000057
1040
0.45000037
1040
-0.35000057
1040
-0.45000037
1070
     1
1040
-0.35000057
1040
-0.45000037
1040
-1.1500015100000001
1040
-0.45000037
1070
     1
1040
-1.1500015100000001
1040
-0.45000037
1040
-1.1500015100000001
1040
0.45000037
1071
        1
1005
1EA
1070
     0
1070
     1
1071
        0
1002
}
  0
INSERT
  5
1F0
  8
0
  2
*U20
 10
0.0
 20
0.0
 30
0.0
  0
INSERT
  5
1F1
  8
TOPLAYER
  6
CONTINUOUS
 62
     1
  2
*U21
 10
0.0
 20
0.0
 30
0.0
1001
ACAD
1002
{
1000
R14_HATCH_DATA
1000
1F1
1011
1.0
1021
0.0
1031
0.0
1021
0.0
1031
0.0
1011
0.0
1021
0.0
1031
0.0
1021
1.0
1031
0.0
1011
0.0
1021
0.0
1031
0.0
1021
0.0
1031
1.0
1040
0.0
1010
0.0
1020
0.0
1030
1.0
1000
SOLID
1070
     1
1070
     1
1071
        1
1071
        1
1071
        4
1070
     1
1040
0.35000057
1040
0.45000037
1040
1.1500015100000001
1040
0.45000037
1070
     1
1040
1.1500015100000001
1040
0.45000037
1040
1.1500015100000001
1040
-0.45000037
1070
     1
1040
1.1500015100000001
1040
-0.45000037
1040
0.3500005699999999
1040
-0.45000037
1070
     1
1040
0.35000057
1040
-0.45000037
1040
0.35000057
1040
0.45000037
1071
        1
1005
1F0
1070
     0
1070
     1
1071
        0
1002
}
  0
ENDBLK
  5
1E5
  8
0
  0
BLOCK
  8
0
  2
*U18
 70
     1
 10
0.0
 20
0.0
 30
0.0
  3
*U18
  1

  0
LINE
  5
FBB
  8
TOPLAYER
 62
     1
 10
-1.1500015100000001
 20
0.45000037
 30
0.0
 11
-0.3500005699999999
 21
0.45000037
 31
0.0
210
0.0
220
0.0
230
-1.0
  0
LINE
  5
FBC
  8
TOPLAYER
 62
     1
 10
-0.3500005699999999
 20
0.45000037
 30
0.0
 11
-0.3500005699999999
 21
-0.45000037
 31
0.0
210
0.0
220
0.0
230
-1.0
  0
LINE
  5
FBD
  8
TOPLAYER
 62
     1
 10
-0.3500005699999999
 20
-0.45000037
 30
0.0
 11
-1.1500015100000001
 21
-0.45000037
 31
0.0
210
0.0
220
0.0
230
-1.0
  0
LINE
  5
FBE
  8
TOPLAYER
 62
     1
 10
-1.1500015100000001
 20
-0.45000037
 30
0.0
 11
-1.1500015100000001
 21
0.45000037
 31
0.0
210
0.0
220
0.0
230
-1.0
  0
ENDBLK
  5
FC0
  8
0
  0
BLOCK
  8
0
  2
*U19
 70
     1
 10
0.0
 20
0.0
 30
0.0
  3
*U19
  1

  0
SOLID
  5
FC2
  8
TOPLAYER
  6
CONTINUOUS
 62
     1
 10
1.1500015100000001
 20
0.45000037
 30
0.0
 11
0.35000057
 21
-0.45000037
 31
0.0
 12
1.1500015100000001
 22
-0.45000037
 32
0.0
 13
1.1500015100000001
 23
-0.45000037
 33
0.0
210
0.0
220
0.0
230
-1.0
  0
SOLID
  5
FC3
  8
TOPLAYER
  6
CONTINUOUS
 62
     1
 10
1.1500015100000001
 20
0.45000037
 30
0.0
 11
0.35000057
 21
0.45000037
 31
0.0
 12
0.35000057
 22
-0.45000037
 32
0.0
 13
0.35000057
 23
-0.45000037
 33
0.0
210
0.0
220
0.0
230
-1.0
  0
LINE
  5
FC4
  8
TOPLAYER
  6
CONTINUOUS
 62
     1
 10
-1.1500015100000001
 20
-0.45000037
 30
0.0
 11
-1.1500015100000001
 21
0.45000037
 31
0.0
  0
LINE
  5
FC5
  8
TOPLAYER
  6
CONTINUOUS
 62
     1
 10
-0.35000057
 20
0.45000037
 30
0.0
 11
-0.35000057
 21
-0.45000037
 31
0.0
  0
ENDBLK
  5
FC7
  8
0
  0
BLOCK
  8
0
  2
*U20
 70
     1
 10
0.0
 20
0.0
 30
0.0
  3
*U20
  1

  0
LINE
  5
FC9
  8
TOPLAYER
 62
     1
 10
0.3500005699999999
 20
0.45000037
 30
0.0
 11
1.1500015100000001
 21
0.45000037
 31
0.0
210
0.0
220
0.0
230
-1.0
  0
LINE
  5
FCA
  8
TOPLAYER
 62
     1
 10
1.1500015100000001
 20
0.45000037
 30
0.0
 11
1.1500015100000001
 21
-0.45000037
 31
0.0
210
0.0
220
0.0
230
-1.0
  0
LINE
  5
FCB
  8
TOPLAYER
 62
     1
 10
1.1500015100000001
 20
-0.45000037
 30
0.0
 11
0.3500005699999999
 21
-0.45000037
 31
0.0
210
0.0
220
0.0
230
-1.0
  0
LINE
  5
FCC
  8
TOPLAYER
 62
     1
 10
0.3500005699999999
 20
-0.45000037
 30
0.0
 11
0.3500005699999999
 21
0.45000037
 31
0.0
210
0.0
220
0.0
230
-1.0
  0
ENDBLK
  5
FCE
  8
0
  0
BLOCK
  8
0
  2
*U21
 70
     1
 10
0.0
 20
0.0
 30
0.0
  3
*U21
  1

  0
SOLID
  5
FD0
  8
TOPLAYER
  6
CONTINUOUS
 62
     1
 10
-0.35000057
 20
0.45000037
 30
0.0
 11
-1.1500015100000001
 21
-0.45000037
 31
0.0
 12
-0.35000057
 22
-0.45000037
 32
0.0
 13
-0.35000057
 23
-0.45000037
 33
0.0
210
0.0
220
0.0
230
-1.0
  0
SOLID
  5
FD1
  8
TOPLAYER
  6
CONTINUOUS
 62
     1
 10
-0.35000057
 20
0.45000037
 30
0.0
 11
-1.1500015100000001
 21
0.45000037
 31
0.0
 12
-1.1500015100000001
 22
-0.45000037
 32
0.0
 13
-1.1500015100000001
 23
-0.45000037
 33
0.0
210
0.0
220
0.0
230
-1.0
  0
LINE
  5
FD2
  8
TOPLAYER
  6
CONTINUOUS
 62
     1
 10
0.35000057
 20
-0.45000037
 30
0.0
 11
0.35000057
 21
0.45000037
 31
0.0
  0
LINE
  5
FD3
  8
TOPLAYER
  6
CONTINUOUS
 62
     1
 10
1.1500015100000001
 20
0.45000037
 30
0.0
 11
1.1500015100000001
 21
-0.45000037
 31
0.0
  0
ENDBLK
  5
FD5
  8
0
  0
BLOCK
  8
0
  2
JST______4____5
 70
     0
 10
0.0
 20
0.0
 30
0.0
  3
JST______4____5
  1

  0
INSERT
  5
1FA
  8
0
  2
*U23
 10
0.0
 20
0.0
 30
0.0
  0
INSERT
  5
1FB
  8
TOPLAYER
  6
CONTINUOUS
 62
     1
  2
*U24
 10
0.0
 20
0.0
 30
0.0
1001
ACAD
1002
{
1000
R14_HATCH_DATA
1000
1FB
1011
1.0
1021
0.0
1031
0.0
1021
0.0
1031
0.0
1011
0.0
1021
0.0
1031
0.0
1021
1.0
1031
0.0
1011
0.0
1021
0.0
1031
0.0
1021
0.0
1031
1.0
1040
0.0
1010
0.0
1020
0.0
1030
1.0
1000
SOLID
1070
     1
1070
     1
1071
        1
1071
        1
1071
        4
1070
     1
1040
7.019994849999998
1040
1.00000562
1040
8.21999499
1040
1.00000562
1070
     1
1040
8.21999499
1040
1.00000562
1040
8.21999499
1040
-0.9999954599999995
1070
     1
1040
8.21999499
1040
-0.9999954599999995
1040
7.019994849999998
1040
-0.9999954599999998
1070
     1
1040
7.019994849999998
1040
-0.9999954599999998
1040
7.019994849999998
1040
1.00000562
1071
        1
1005
1FA
1070
     0
1070
     1
1071
        0
1002
}
  0
INSERT
  5
200
  8
0
  2
*U25
 10
0.0
 20
0.0
 30
0.0
  0
INSERT
  5
201
  8
TOPLAYER
  6
CONTINUOUS
 62
     1
  2
*U26
 10
0.0
 20
0.0
 30
0.0
1001
ACAD
1002
{
1000
R14_HATCH_DATA
1000
201
1011
1.0
1021
0.0
1031
0.0
1021
0.0
1031
0.0
1011
0.0
1021
0.0
1031
0.0
1021
1.0
1031
0.0
1011
0.0
1021
0.0
1031
0.0
1021
0.0
1031
1.0
1040
0.0
1010
0.0
1020
0.0
1030
1.0
1000
SOLID
1070
     1
1070
     1
1071
        1
1071
        1
1071
        4
1070
     1
1040
1.939999929999999
1040
1.00000054
1040
3.1400000700000001
1040
1.00000054
1070
     1
1040
3.1400000700000001
1040
1.00000054
1040
3.1400000700000001
1040
-1.00000054
1070
     1
1040
3.1400000700000001
1040
-1.00000054
1040
1.939999929999999
1040
-1.00000054
1070
     1
1040
1.939999929999999
1040
-1.00000054
1040
1.939999929999999
1040
1.00000054
1071
        1
1005
200
1070
     0
1070
     1
1071
        0
1002
}
  0
INSERT
  5
206
  8
0
  2
*U27
 10
0.0
 20
0.0
 30
0.0
  0
INSERT
  5
207
  8
TOPLAYER
  6
CONTINUOUS
 62
     1
  2
*U28
 10
0.0
 20
0.0
 30
0.0
1001
ACAD
1002
{
1000
R14_HATCH_DATA
1000
207
1011
1.0
1021
0.0
1031
0.0
1021
0.0
1031
0.0
1011
0.0
1021
0.0
1031
0.0
1021
1.0
1031
0.0
1011
0.0
1021
0.0
1031
0.0
1021
0.0
1031
1.0
1040
0.0
1010
0.0
1020
0.0
1030
1.0
1000
SOLID
1070
     1
1070
     1
1071
        1
1071
        1
1071
        4
1070
     1
1040
-0.6010008300000002
1040
1.00000054
1040
0.5989993099999996
1040
1.00000054
1070
     1
1040
0.59899931
1040
1.00000054
1040
0.5989993100000002
1040
-1.00000054
1070
     1
1040
0.5989993100000002
1040
-1.00000054
1040
-0.6010008299999996
1040
-1.00000054
1070
     1
1040
-0.6010008299999999
1040
-1.00000054
1040
-0.6010008300000002
1040
1.00000054
1071
        1
1005
206
1070
     0
1070
     1
1071
        0
1002
}
  0
INSERT
  5
20C
  8
0
  2
*U29
 10
0.0
 20
0.0
 30
0.0
  0
INSERT
  5
20D
  8
TOPLAYER
  6
CONTINUOUS
 62
     1
  2
*U30
 10
0.0
 20
0.0
 30
0.0
1001
ACAD
1002
{
1000
R14_HATCH_DATA
1000
20D
1011
1.0
1021
0.0
1031
0.0
1021
0.0
1031
0.0
1011
0.0
1021
0.0
1031
0.0
1021
1.0
1031
0.0
1011
0.0
1021
0.0
1031
0.0
1021
0.0
1031
1.0
1040
0.0
1010
0.0
1020
0.0
1030
1.0
1000
SOLID
1070
     1
1070
     1
1071
        1
1071
        1
1071
        4
1070
     1
1040
4.4799999299999991
1040
1.00000054
1040
5.6800000699999984
1040
1.00000054
1070
     1
1040
5.6800000699999984
1040
1.00000054
1040
5.6800000699999984
1040
-1.00000054
1070
     1
1040
5.6800000699999984
1040
-1.00000054
1040
4.4799999299999991
1040
-1.00000054
1070
     1
1040
4.4799999299999991
1040
-1.00000054
1040
4.4799999299999991
1040
1.00000054
1071
        1
1005
20C
1070
     0
1070
     1
1071
        0
1002
}
  0
ENDBLK
  5
1F5
  8
0
  0
BLOCK
  8
0
  2
*U23
 70
     1
 10
0.0
 20
0.0
 30
0.0
  3
*U23
  1

  0
LINE
  5
FD7
  8
TOPLAYER
 62
     1
 10
7.019994849999998
 20
1.000005619999998
 30
0.0
 11
8.21999499
 21
1.00000562
 31
0.0
210
0.0
220
0.0
230
-1.0
  0
LINE
  5
FD8
  8
TOPLAYER
 62
     1
 10
8.21999499
 20
1.00000562
 30
0.0
 11
8.21999499
 21
-0.9999954599999995
 31
0.0
210
0.0
220
0.0
230
-1.0
  0
LINE
  5
FD9
  8
TOPLAYER
 62
     1
 10
8.21999499
 20
-0.9999954599999995
 30
0.0
 11
7.019994849999998
 21
-0.9999954599999998
 31
0.0
210
0.0
220
0.0
230
-1.0
  0
LINE
  5
FDA
  8
TOPLAYER
 62
     1
 10
7.019994849999998
 20
-0.9999954599999998
 30
0.0
 11
7.019994849999998
 21
1.000005619999998
 31
0.0
210
0.0
220
0.0
230
-1.0
  0
ENDBLK
  5
FDC
  8
0
  0
BLOCK
  8
0
  2
*U24
 70
     1
 10
0.0
 20
0.0
 30
0.0
  3
*U24
  1

  0
SOLID
  5
FDE
  8
TOPLAYER
  6
CONTINUOUS
 62
     1
 10
-7.019994849999998
 20
1.00000562
 30
0.0
 11
-8.21999499
 21
-0.9999954599999998
 31
0.0
 12
-7.019994849999998
 22
-0.9999954599999998
 32
0.0
 13
-7.019994849999998
 23
-0.9999954599999998
 33
0.0
210
0.0
220
0.0
230
-1.0
  0
SOLID
  5
FDF
  8
TOPLAYER
  6
CONTINUOUS
 62
     1
 10
-7.019994849999998
 20
1.00000562
 30
0.0
 11
-8.21999499
 21
1.00000562
 31
0.0
 12
-8.21999499
 22
-0.9999954599999998
 32
0.0
 13
-8.21999499
 23
-0.9999954599999998
 33
0.0
210
0.0
220
0.0
230
-1.0
  0
LINE
  5
FE0
  8
TOPLAYER
  6
CONTINUOUS
 62
     1
 10
7.019994849999998
 20
-0.9999954599999998
 30
0.0
 11
7.019994849999998
 21
1.00000562
 31
0.0
  0
LINE
  5
FE1
  8
TOPLAYER
  6
CONTINUOUS
 62
     1
 10
8.21999499
 20
1.00000562
 30
0.0
 11
8.21999499
 21
-0.9999954599999998
 31
0.0
  0
ENDBLK
  5
FE3
  8
0
  0
BLOCK
  8
0
  2
*U25
 70
     1
 10
0.0
 20
0.0
 30
0.0
  3
*U25
  1

  0
LINE
  5
FE5
  8
TOPLAYER
 62
     1
 10
1.939999929999999
 20
1.0000005399999981
 30
0.0
 11
3.1400000699999979
 21
1.00000054
 31
0.0
210
0.0
220
0.0
230
-1.0
  0
LINE
  5
FE6
  8
TOPLAYER
 62
     1
 10
3.1400000699999979
 20
1.00000054
 30
0.0
 11
3.1400000699999979
 21
-1.0000005399999981
 31
0.0
210
0.0
220
0.0
230
-1.0
  0
LINE
  5
FE7
  8
TOPLAYER
 62
     1
 10
3.1400000699999979
 20
-1.0000005399999981
 30
0.0
 11
1.939999929999999
 21
-1.00000054
 31
0.0
210
0.0
220
0.0
230
-1.0
  0
LINE
  5
FE8
  8
TOPLAYER
 62
     1
 10
1.939999929999999
 20
-1.00000054
 30
0.0
 11
1.939999929999999
 21
1.0000005399999981
 31
0.0
210
0.0
220
0.0
230
-1.0
  0
ENDBLK
  5
FEA
  8
0
  0
BLOCK
  8
0
  2
*U26
 70
     1
 10
0.0
 20
0.0
 30
0.0
  3
*U26
  1

  0
SOLID
  5
FEC
  8
TOPLAYER
  6
CONTINUOUS
 62
     1
 10
-1.939999929999999
 20
1.00000054
 30
0.0
 11
-3.1400000700000001
 21
-1.00000054
 31
0.0
 12
-1.939999929999999
 22
-1.00000054
 32
0.0
 13
-1.939999929999999
 23
-1.00000054
 33
0.0
210
0.0
220
0.0
230
-1.0
  0
SOLID
  5
FED
  8
TOPLAYER
  6
CONTINUOUS
 62
     1
 10
-1.939999929999999
 20
1.00000054
 30
0.0
 11
-3.1400000700000001
 21
1.00000054
 31
0.0
 12
-3.1400000700000001
 22
-1.00000054
 32
0.0
 13
-3.1400000700000001
 23
-1.00000054
 33
0.0
210
0.0
220
0.0
230
-1.0
  0
LINE
  5
FEE
  8
TOPLAYER
  6
CONTINUOUS
 62
     1
 10
1.939999929999999
 20
-1.00000054
 30
0.0
 11
1.939999929999999
 21
1.00000054
 31
0.0
  0
LINE
  5
FEF
  8
TOPLAYER
  6
CONTINUOUS
 62
     1
 10
3.1400000700000001
 20
1.00000054
 30
0.0
 11
3.1400000700000001
 21
-1.00000054
 31
0.0
  0
ENDBLK
  5
FF1
  8
0
  0
BLOCK
  8
0
  2
*U27
 70
     1
 10
0.0
 20
0.0
 30
0.0
  3
*U27
  1

  0
LINE
  5
FF3
  8
TOPLAYER
 62
     1
 10
-0.6010008300000002
 20
1.0000005399999981
 30
0.0
 11
0.59899931
 21
1.00000054
 31
0.0
210
0.0
220
0.0
230
-1.0
  0
LINE
  5
FF4
  8
TOPLAYER
 62
     1
 10
0.59899931
 20
1.00000054
 30
0.0
 11
0.5989993100000002
 21
-1.0000005399999981
 31
0.0
210
0.0
220
0.0
230
-1.0
  0
LINE
  5
FF5
  8
TOPLAYER
 62
     1
 10
0.5989993100000002
 20
-1.0000005399999981
 30
0.0
 11
-0.6010008299999999
 21
-1.00000054
 31
0.0
210
0.0
220
0.0
230
-1.0
  0
LINE
  5
FF6
  8
TOPLAYER
 62
     1
 10
-0.6010008299999999
 20
-1.00000054
 30
0.0
 11
-0.6010008300000002
 21
1.0000005399999981
 31
0.0
210
0.0
220
0.0
230
-1.0
  0
ENDBLK
  5
FF8
  8
0
  0
BLOCK
  8
0
  2
*U28
 70
     1
 10
0.0
 20
0.0
 30
0.0
  3
*U28
  1

  0
SOLID
  5
FFA
  8
TOPLAYER
  6
CONTINUOUS
 62
     1
 10
0.6010008300000002
 20
1.00000054
 30
0.0
 11
-0.5989993100000002
 21
-1.00000054
 31
0.0
 12
0.6010008299999999
 22
-1.00000054
 32
0.0
 13
0.6010008299999999
 23
-1.00000054
 33
0.0
210
0.0
220
0.0
230
-1.0
  0
SOLID
  5
FFB
  8
TOPLAYER
  6
CONTINUOUS
 62
     1
 10
0.6010008300000002
 20
1.00000054
 30
0.0
 11
-0.59899931
 21
1.00000054
 31
0.0
 12
-0.5989993100000002
 22
-1.00000054
 32
0.0
 13
-0.5989993100000002
 23
-1.00000054
 33
0.0
210
0.0
220
0.0
230
-1.0
  0
LINE
  5
FFC
  8
TOPLAYER
  6
CONTINUOUS
 62
     1
 10
-0.6010008299999999
 20
-1.00000054
 30
0.0
 11
-0.6010008300000002
 21
1.00000054
 31
0.0
  0
LINE
  5
FFD
  8
TOPLAYER
  6
CONTINUOUS
 62
     1
 10
0.59899931
 20
1.00000054
 30
0.0
 11
0.5989993100000002
 21
-1.00000054
 31
0.0
  0
ENDBLK
  5
FFF
  8
0
  0
BLOCK
  8
0
  2
*U29
 70
     1
 10
0.0
 20
0.0
 30
0.0
  3
*U29
  1

  0
LINE
  5
1001
  8
TOPLAYER
 62
     1
 10
4.4799999299999991
 20
1.0000005399999981
 30
0.0
 11
5.6800000699999993
 21
1.00000054
 31
0.0
210
0.0
220
0.0
230
-1.0
  0
LINE
  5
1002
  8
TOPLAYER
 62
     1
 10
5.6800000699999993
 20
1.00000054
 30
0.0
 11
5.6800000699999993
 21
-1.0000005399999981
 31
0.0
210
0.0
220
0.0
230
-1.0
  0
LINE
  5
1003
  8
TOPLAYER
 62
     1
 10
5.6800000699999993
 20
-1.0000005399999981
 30
0.0
 11
4.4799999299999991
 21
-1.00000054
 31
0.0
210
0.0
220
0.0
230
-1.0
  0
LINE
  5
1004
  8
TOPLAYER
 62
     1
 10
4.4799999299999991
 20
-1.00000054
 30
0.0
 11
4.4799999299999991
 21
1.0000005399999981
 31
0.0
210
0.0
220
0.0
230
-1.0
  0
ENDBLK
  5
1006
  8
0
  0
BLOCK
  8
0
  2
*U30
 70
     1
 10
0.0
 20
0.0
 30
0.0
  3
*U30
  1

  0
SOLID
  5
1008
  8
TOPLAYER
  6
CONTINUOUS
 62
     1
 10
-4.4799999299999991
 20
1.00000054
 30
0.0
 11
-5.6800000699999984
 21
-1.00000054
 31
0.0
 12
-4.4799999299999991
 22
-1.00000054
 32
0.0
 13
-4.4799999299999991
 23
-1.00000054
 33
0.0
210
0.0
220
0.0
230
-1.0
  0
SOLID
  5
1009
  8
TOPLAYER
  6
CONTINUOUS
 62
     1
 10
-4.4799999299999991
 20
1.00000054
 30
0.0
 11
-5.6800000699999984
 21
1.00000054
 31
0.0
 12
-5.6800000699999984
 22
-1.00000054
 32
0.0
 13
-5.6800000699999984
 23
-1.00000054
 33
0.0
210
0.0
220
0.0
230
-1.0
  0
LINE
  5
100A
  8
TOPLAYER
  6
CONTINUOUS
 62
     1
 10
4.4799999299999991
 20
-1.00000054
 30
0.0
 11
4.4799999299999991
 21
1.00000054
 31
0.0
  0
LINE
  5
100B
  8
TOPLAYER
  6
CONTINUOUS
 62
     1
 10
5.6800000699999984
 20
1.00000054
 30
0.0
 11
5.6800000699999984
 21
-1.00000054
 31
0.0
  0
ENDBLK
  5
100D
  8
0
  0
BLOCK
  8
0
  2
OPTICAL_SENSOR_SMD_6
 70
     0
 10
0.0
 20
0.0
 30
0.0
  3
OPTICAL_SENSOR_SMD_6
  1

  0
INSERT
  5
216
  8
0
  2
*U32
 10
0.0
 20
0.0
 30
0.0
  0
INSERT
  5
217
  8
TOPLAYER
  6
CONTINUOUS
 62
     1
  2
*U33
 10
0.0
 20
0.0
 30
0.0
1001
ACAD
1002
{
1000
R14_HATCH_DATA
1000
217
1011
1.0
1021
0.0
1031
0.0
1021
0.0
1031
0.0
1011
0.0
1021
0.0
1031
0.0
1021
1.0
1031
0.0
1011
0.0
1021
0.0
1031
0.0
1021
0.0
1031
1.0
1040
0.0
1010
0.0
1020
0.0
1030
1.0
1000
SOLID
1070
     1
1070
     1
1071
        1
1071
        1
1071
        4
1070
     1
1040
1.5000008099999991
1040
1.7500028499999991
1040
3.3999995499999991
1040
1.7500028499999991
1070
     1
1040
3.3999995499999991
1040
1.7500028499999991
1040
3.3999995499999991
1040
1.0500017100000001
1070
     1
1040
3.3999995499999991
1040
1.0500017100000001
1040
1.5000008099999991
1040
1.0500017100000001
1070
     1
1040
1.5000008099999991
1040
1.0500017100000001
1040
1.5000008099999991
1040
1.7500028499999991
1071
        1
1005
216
1070
     0
1070
     1
1071
        0
1002
}
  0
INSERT
  5
21C
  8
0
  2
*U34
 10
0.0
 20
0.0
 30
0.0
  0
INSERT
  5
21D
  8
TOPLAYER
  6
CONTINUOUS
 62
     1
  2
*U35
 10
0.0
 20
0.0
 30
0.0
1001
ACAD
1002
{
1000
R14_HATCH_DATA
1000
21D
1011
1.0
1021
0.0
1031
0.0
1021
0.0
1031
0.0
1011
0.0
1021
0.0
1031
0.0
1021
1.0
1031
0.0
1011
0.0
1021
0.0
1031
0.0
1021
0.0
1031
1.0
1040
0.0
1010
0.0
1020
0.0
1030
1.0
1000
SOLID
1070
     1
1070
     1
1071
        1
1071
        1
1071
        4
1070
     1
1040
1.5000008099999991
1040
0.35000311
1040
3.3999995499999991
1040
0.35000311
1070
     1
1040
3.3999995499999991
1040
0.35000311
1040
3.3999995499999991
1040
-0.34999803
1070
     1
1040
3.3999995499999991
1040
-0.34999803
1040
1.5000008099999991
1040
-0.34999803
1070
     1
1040
1.5000008099999991
1040
-0.34999803
1040
1.5000008099999991
1040
0.3500031099999999
1071
        1
1005
21C
1070
     0
1070
     1
1071
        0
1002
}
  0
INSERT
  5
222
  8
0
  2
*U36
 10
0.0
 20
0.0
 30
0.0
  0
INSERT
  5
223
  8
TOPLAYER
  6
CONTINUOUS
 62
     1
  2
*U37
 10
0.0
 20
0.0
 30
0.0
1001
ACAD
1002
{
1000
R14_HATCH_DATA
1000
223
1011
1.0
1021
0.0
1031
0.0
1021
0.0
1031
0.0
1011
0.0
1021
0.0
1031
0.0
1021
1.0
1031
0.0
1011
0.0
1021
0.0
1031
0.0
1021
0.0
1031
1.0
1040
0.0
1010
0.0
1020
0.0
1030
1.0
1000
SOLID
1070
     1
1070
     1
1071
        1
1071
        1
1071
        4
1070
     1
1040
1.5000008099999991
1040
-1.0499966300000001
1040
3.3999995499999991
1040
-1.0499966300000001
1070
     1
1040
3.3999995499999991
1040
-1.0499966300000001
1040
3.3999995499999991
1040
-1.74999777
1070
     1
1040
3.3999995499999991
1040
-1.74999777
1040
1.5000008099999991
1040
-1.74999777
1070
     1
1040
1.5000008099999991
1040
-1.74999777
1040
1.5000008099999991
1040
-1.0499966300000001
1071
        1
1005
222
1070
     0
1070
     1
1071
        0
1002
}
  0
INSERT
  5
228
  8
0
  2
*U38
 10
0.0
 20
0.0
 30
0.0
  0
INSERT
  5
229
  8
TOPLAYER
  6
CONTINUOUS
 62
     1
  2
*U39
 10
0.0
 20
0.0
 30
0.0
1001
ACAD
1002
{
1000
R14_HATCH_DATA
1000
229
1011
1.0
1021
0.0
1031
0.0
1021
0.0
1031
0.0
1011
0.0
1021
0.0
1031
0.0
1021
1.0
1031
0.0
1011
0.0
1021
0.0
1031
0.0
1021
0.0
1031
1.0
1040
0.0
1010
0.0
1020
0.0
1030
1.0
1000
SOLID
1070
     1
1070
     1
1071
        1
1071
        1
1071
        4
1070
     1
1040
-3.3999995499999991
1040
-1.0499966300000001
1040
-1.5000008099999991
1040
-1.0499966300000001
1070
     1
1040
-1.5000008099999991
1040
-1.0499966300000001
1040
-1.5000008099999991
1040
-1.74999777
1070
     1
1040
-1.5000008099999991
1040
-1.74999777
1040
-3.3999995499999991
1040
-1.74999777
1070
     1
1040
-3.3999995499999991
1040
-1.74999777
1040
-3.3999995499999991
1040
-1.0499966300000001
1071
        1
1005
228
1070
     0
1070
     1
1071
        0
1002
}
  0
INSERT
  5
22E
  8
0
  2
*U40
 10
0.0
 20
0.0
 30
0.0
  0
INSERT
  5
22F
  8
TOPLAYER
  6
CONTINUOUS
 62
     1
  2
*U41
 10
0.0
 20
0.0
 30
0.0
1001
ACAD
1002
{
1000
R14_HATCH_DATA
1000
22F
1011
1.0
1021
0.0
1031
0.0
1021
0.0
1031
0.0
1011
0.0
1021
0.0
1031
0.0
1021
1.0
1031
0.0
1011
0.0
1021
0.0
1031
0.0
1021
0.0
1031
1.0
1040
0.0
1010
0.0
1020
0.0
1030
1.0
1000
SOLID
1070
     1
1070
     1
1071
        1
1071
        1
1071
        4
1070
     1
1040
-3.3999995499999991
1040
0.5000028099999999
1040
-1.5000008099999991
1040
0.5000028099999999
1070
     1
1040
-1.5000008099999991
1040
0.5000028099999999
1040
-1.5000008099999991
1040
-0.49999773
1070
     1
1040
-1.5000008099999991
1040
-0.49999773
1040
-3.3999995499999991
1040
-0.49999773
1070
     1
1040
-3.3999995499999991
1040
-0.49999773
1040
-3.3999995499999991
1040
0.5000028099999998
1071
        1
1005
22E
1070
     0
1070
     1
1071
        0
1002
}
  0
INSERT
  5
234
  8
0
  2
*U42
 10
0.0
 20
0.0
 30
0.0
  0
INSERT
  5
235
  8
TOPLAYER
  6
CONTINUOUS
 62
     1
  2
*U43
 10
0.0
 20
0.0
 30
0.0
1001
ACAD
1002
{
1000
R14_HATCH_DATA
1000
235
1011
1.0
1021
0.0
1031
0.0
1021
0.0
1031
0.0
1011
0.0
1021
0.0
1031
0.0
1021
1.0
1031
0.0
1011
0.0
1021
0.0
1031
0.0
1021
0.0
1031
1.0
1040
0.0
1010
0.0
1020
0.0
1030
1.0
1000
SOLID
1070
     1
1070
     1
1071
        1
1071
        1
1071
        4
1070
     1
1040
-3.3999995499999991
1040
1.7500028499999991
1040
-1.5000008099999991
1040
1.7500028499999991
1070
     1
1040
-1.5000008099999991
1040
1.7500028499999991
1040
-1.5000008099999991
1040
1.0500017100000001
1070
     1
1040
-1.5000008099999991
1040
1.0500017100000001
1040
-3.3999995499999991
1040
1.0500017100000001
1070
     1
1040
-3.3999995499999991
1040
1.0500017100000001
1040
-3.3999995499999991
1040
1.7500028499999991
1071
        1
1005
234
1070
     0
1070
     1
1071
        0
1002
}
  0
LINE
  5
236
  8
TOPLAYER
 10
3.400000819999998
 20
-1.049992819999999
 30
0.0
 11
1.50000716
 21
-1.0499877399999991
 31
0.0
  0
LINE
  5
237
  8
TOPLAYER
 10
1.50000716
 20
-1.0499877399999991
 30
0.0
 11
1.499999539999999
 21
-1.7499964999999991
 31
0.0
  0
LINE
  5
238
  8
TOPLAYER
 10
1.499999539999999
 20
-1.7499964999999991
 30
0.0
 11
2.4999721400000001
 21
-1.7499888800000001
 31
0.0
  0
LINE
  5
239
  8
TOPLAYER
 10
2.4999721400000001
 20
-1.7499888800000001
 30
0.0
 11
2.4999721400000001
 21
-2.24999042
 31
0.0
  0
LINE
  5
23A
  8
TOPLAYER
 10
2.4999721400000001
 20
-2.24999042
 30
0.0
 11
2.6086130199999991
 21
-2.2484842
 31
0.0
  0
LINE
  5
23B
  8
TOPLAYER
 10
2.6086130199999991
 20
-2.2484842
 30
0.0
 11
2.81957272
 21
-2.1963659400000002
 31
0.0
  0
LINE
  5
23C
  8
TOPLAYER
 10
2.81957272
 20
-2.1963659400000002
 30
0.0
 11
3.0132578799999981
 21
-2.097841879999998
 31
0.0
  0
LINE
  5
23D
  8
TOPLAYER
 10
3.0132578799999981
 20
-2.097841879999998
 30
0.0
 11
3.1796101000000001
 21
-1.9580301200000001
 31
0.0
  0
LINE
  5
23E
  8
TOPLAYER
 10
3.1796101000000001
 20
-1.9580301200000001
 30
0.0
 11
3.3099959199999991
 21
-1.7841899800000001
 31
0.0
  0
LINE
  5
23F
  8
TOPLAYER
 10
3.3099959199999991
 20
-1.7841899800000001
 30
0.0
 11
3.39764116
 21
-1.5853460800000001
 31
0.0
  0
LINE
  5
240
  8
TOPLAYER
 10
3.39764116
 20
-1.5853460800000001
 30
0.0
 11
3.43799922
 21
-1.3718235199999991
 31
0.0
  0
LINE
  5
241
  8
TOPLAYER
 10
3.43799922
 20
-1.3718235199999991
 30
0.0
 11
3.4289695199999981
 21
-1.1547093999999991
 31
0.0
  0
LINE
  5
242
  8
TOPLAYER
 10
3.4289695199999981
 20
-1.1547093999999991
 30
0.0
 11
3.3999982800000002
 21
-1.0499902800000001
 31
0.0
  0
LINE
  5
243
  8
TOPLAYER
 10
3.3999982800000002
 20
-1.0499902800000001
 30
0.0
 11
3.400000819999998
 21
-1.049992819999999
 31
0.0
  0
LINE
  5
244
  8
TOPLAYER
 10
-3.3999931999999982
 20
1.050008059999999
 30
0.0
 11
-1.499999539999999
 21
1.050002979999999
 31
0.0
  0
LINE
  5
245
  8
TOPLAYER
 10
-1.499999539999999
 20
1.050002979999999
 30
0.0
 11
-1.499994459999999
 21
1.75001428
 31
0.0
  0
LINE
  5
246
  8
TOPLAYER
 10
-1.499994459999999
 20
1.75001428
 30
0.0
 11
-2.499964519999998
 21
1.7500092
 31
0.0
  0
LINE
  5
247
  8
TOPLAYER
 10
-2.499964519999998
 20
1.7500092
 30
0.0
 11
-2.499967059999999
 21
2.250008199999999
 31
0.0
  0
LINE
  5
248
  8
TOPLAYER
 10
-2.499967059999999
 20
2.250008199999999
 30
0.0
 11
-2.6086079400000002
 21
2.248501979999999
 31
0.0
  0
LINE
  5
249
  8
TOPLAYER
 10
-2.6086079400000002
 20
2.248501979999999
 30
0.0
 11
-2.819567639999998
 21
2.19638372
 31
0.0
  0
LINE
  5
24A
  8
TOPLAYER
 10
-2.819567639999998
 20
2.19638372
 30
0.0
 11
-3.0132528000000001
 21
2.0978596600000001
 31
0.0
  0
LINE
  5
24B
  8
TOPLAYER
 10
-3.0132528000000001
 20
2.0978596600000001
 30
0.0
 11
-3.179605019999999
 21
1.9580479
 31
0.0
  0
LINE
  5
24C
  8
TOPLAYER
 10
-3.179605019999999
 20
1.9580479
 30
0.0
 11
-3.3099908400000002
 21
1.784207759999999
 31
0.0
  0
LINE
  5
24D
  8
TOPLAYER
 10
-3.3099908400000002
 20
1.784207759999999
 30
0.0
 11
-3.3976360799999981
 21
1.58536386
 31
0.0
  0
LINE
  5
24E
  8
TOPLAYER
 10
-3.3976360799999981
 20
1.58536386
 30
0.0
 11
-3.437994139999998
 21
1.3718413
 31
0.0
  0
LINE
  5
24F
  8
TOPLAYER
 10
-3.437994139999998
 20
1.3718413
 30
0.0
 11
-3.4289644400000001
 21
1.1547271800000001
 31
0.0
  0
LINE
  5
250
  8
TOPLAYER
 10
-3.4289644400000001
 20
1.1547271800000001
 30
0.0
 11
-3.3999931999999982
 21
1.050008059999999
 31
0.0
  0
LINE
  5
251
  8
TOPLAYER
 10
-3.3999931999999982
 20
1.050008059999999
 30
0.0
 11
-3.3999931999999982
 21
1.050008059999999
 31
0.0
  0
LINE
  5
252
  8
TOPLAYER
 10
3.4009939600000001
 20
1.0510062799999991
 30
0.0
 11
1.5010003000000001
 21
1.0510011999999991
 31
0.0
  0
LINE
  5
253
  8
TOPLAYER
 10
1.5010003000000001
 20
1.0510011999999991
 30
0.0
 11
1.5009952200000001
 21
1.7510125000000001
 31
0.0
  0
LINE
  5
254
  8
TOPLAYER
 10
1.5009952200000001
 20
1.7510125000000001
 30
0.0
 11
2.5009652799999991
 21
1.7510074200000001
 31
0.0
  0
LINE
  5
255
  8
TOPLAYER
 10
2.5009652799999991
 20
1.7510074200000001
 30
0.0
 11
2.5009652799999991
 21
2.2510064199999991
 31
0.0
  0
LINE
  5
256
  8
TOPLAYER
 10
2.5009652799999991
 20
2.2510064199999991
 30
0.0
 11
2.609606159999998
 21
2.2495001999999991
 31
0.0
  0
LINE
  5
257
  8
TOPLAYER
 10
2.609606159999998
 20
2.2495001999999991
 30
0.0
 11
2.8205658599999981
 21
2.1973819400000001
 31
0.0
  0
LINE
  5
258
  8
TOPLAYER
 10
2.8205658599999981
 20
2.1973819400000001
 30
0.0
 11
3.0142510200000001
 21
2.0988578800000002
 31
0.0
  0
LINE
  5
259
  8
TOPLAYER
 10
3.0142510200000001
 20
2.0988578800000002
 30
0.0
 11
3.1806032399999982
 21
1.95904612
 31
0.0
  0
LINE
  5
25A
  8
TOPLAYER
 10
3.1806032399999982
 20
1.95904612
 30
0.0
 11
3.310989059999998
 21
1.7852059799999991
 31
0.0
  0
LINE
  5
25B
  8
TOPLAYER
 10
3.310989059999998
 20
1.7852059799999991
 30
0.0
 11
3.3986342999999981
 21
1.586362079999998
 31
0.0
  0
LINE
  5
25C
  8
TOPLAYER
 10
3.3986342999999981
 20
1.586362079999998
 30
0.0
 11
3.4389923599999981
 21
1.3728395200000001
 31
0.0
  0
LINE
  5
25D
  8
TOPLAYER
 10
3.4389923599999981
 20
1.3728395200000001
 30
0.0
 11
3.4299626600000002
 21
1.155725399999999
 31
0.0
  0
LINE
  5
25E
  8
TOPLAYER
 10
3.4299626600000002
 20
1.155725399999999
 30
0.0
 11
3.4009914199999991
 21
1.0510062799999991
 31
0.0
  0
LINE
  5
25F
  8
TOPLAYER
 10
3.4009914199999991
 20
1.0510062799999991
 30
0.0
 11
3.4009939600000001
 21
1.0510062799999991
 31
0.0
  0
LINE
  5
260
  8
TOPLAYER
 10
-3.4009990399999981
 20
-1.049997899999999
 30
0.0
 11
-1.5010053800000001
 21
-1.049992819999999
 31
0.0
  0
LINE
  5
261
  8
TOPLAYER
 10
-1.5010053800000001
 20
-1.049992819999999
 30
0.0
 11
-1.5010003000000001
 21
-1.7499990400000001
 31
0.0
  0
LINE
  5
262
  8
TOPLAYER
 10
-1.5010003000000001
 20
-1.7499990400000001
 30
0.0
 11
-2.5009703600000002
 21
-1.7499939600000001
 31
0.0
  0
LINE
  5
263
  8
TOPLAYER
 10
-2.5009703600000002
 20
-1.7499939600000001
 30
0.0
 11
-2.5009728999999981
 21
-2.2499954999999989
 31
0.0
  0
LINE
  5
264
  8
TOPLAYER
 10
-2.5009728999999981
 20
-2.2499954999999989
 30
0.0
 11
-2.6096137800000001
 21
-2.248489279999998
 31
0.0
  0
LINE
  5
265
  8
TOPLAYER
 10
-2.6096137800000001
 20
-2.248489279999998
 30
0.0
 11
-2.8205734800000002
 21
-2.1963710199999991
 31
0.0
  0
LINE
  5
266
  8
TOPLAYER
 10
-2.8205734800000002
 20
-2.1963710199999991
 30
0.0
 11
-3.0142586399999991
 21
-2.09784696
 31
0.0
  0
LINE
  5
267
  8
TOPLAYER
 10
-3.0142586399999991
 20
-2.09784696
 30
0.0
 11
-3.180610859999998
 21
-1.958035199999999
 31
0.0
  0
LINE
  5
268
  8
TOPLAYER
 10
-3.180610859999998
 20
-1.958035199999999
 30
0.0
 11
-3.3109966800000001
 21
-1.7841950600000001
 31
0.0
  0
LINE
  5
269
  8
TOPLAYER
 10
-3.3109966800000001
 20
-1.7841950600000001
 30
0.0
 11
-3.3986419200000002
 21
-1.5853511600000001
 31
0.0
  0
LINE
  5
26A
  8
TOPLAYER
 10
-3.3986419200000002
 20
-1.5853511600000001
 30
0.0
 11
-3.4389999800000002
 21
-1.3718285999999991
 31
0.0
  0
LINE
  5
26B
  8
TOPLAYER
 10
-3.4389999800000002
 20
-1.3718285999999991
 30
0.0
 11
-3.42997028
 21
-1.1547144799999991
 31
0.0
  0
LINE
  5
26C
  8
TOPLAYER
 10
-3.42997028
 20
-1.1547144799999991
 30
0.0
 11
-3.4009990399999981
 21
-1.04999536
 31
0.0
  0
LINE
  5
26D
  8
TOPLAYER
 10
-3.4009990399999981
 20
-1.04999536
 30
0.0
 11
-3.4009990399999981
 21
-1.049997899999999
 31
0.0
  0
ENDBLK
  5
211
  8
0
  0
BLOCK
  8
0
  2
*U32
 70
     1
 10
0.0
 20
0.0
 30
0.0
  3
*U32
  1

  0
LINE
  5
100F
  8
TOPLAYER
 62
     1
 10
1.5000008099999991
 20
1.7500028499999991
 30
0.0
 11
3.3999995499999991
 21
1.7500028499999991
 31
0.0
210
0.0
220
0.0
230
-1.0
  0
LINE
  5
1010
  8
TOPLAYER
 62
     1
 10
3.3999995499999991
 20
1.7500028499999991
 30
0.0
 11
3.3999995499999991
 21
1.0500017099999981
 31
0.0
210
0.0
220
0.0
230
-1.0
  0
LINE
  5
1011
  8
TOPLAYER
 62
     1
 10
3.3999995499999991
 20
1.0500017099999981
 30
0.0
 11
1.5000008099999991
 21
1.0500017099999981
 31
0.0
210
0.0
220
0.0
230
-1.0
  0
LINE
  5
1012
  8
TOPLAYER
 62
     1
 10
1.5000008099999991
 20
1.0500017099999981
 30
0.0
 11
1.5000008099999991
 21
1.7500028499999991
 31
0.0
210
0.0
220
0.0
230
-1.0
  0
ENDBLK
  5
1014
  8
0
  0
BLOCK
  8
0
  2
*U33
 70
     1
 10
0.0
 20
0.0
 30
0.0
  3
*U33
  1

  0
SOLID
  5
1016
  8
TOPLAYER
  6
CONTINUOUS
 62
     1
 10
-1.5000008099999991
 20
1.7500028499999991
 30
0.0
 11
-3.3999995499999991
 21
1.0500017100000001
 31
0.0
 12
-1.5000008099999991
 22
1.0500017100000001
 32
0.0
 13
-1.5000008099999991
 23
1.0500017100000001
 33
0.0
210
0.0
220
0.0
230
-1.0
  0
SOLID
  5
1017
  8
TOPLAYER
  6
CONTINUOUS
 62
     1
 10
-1.5000008099999991
 20
1.7500028499999991
 30
0.0
 11
-3.3999995499999991
 21
1.7500028499999991
 31
0.0
 12
-3.3999995499999991
 22
1.0500017100000001
 32
0.0
 13
-3.3999995499999991
 23
1.0500017100000001
 33
0.0
210
0.0
220
0.0
230
-1.0
  0
LINE
  5
1018
  8
TOPLAYER
  6
CONTINUOUS
 62
     1
 10
1.5000008099999991
 20
1.0500017100000001
 30
0.0
 11
1.5000008099999991
 21
1.7500028499999991
 31
0.0
  0
LINE
  5
1019
  8
TOPLAYER
  6
CONTINUOUS
 62
     1
 10
3.3999995499999991
 20
1.7500028499999991
 30
0.0
 11
3.3999995499999991
 21
1.0500017100000001
 31
0.0
  0
ENDBLK
  5
101B
  8
0
  0
BLOCK
  8
0
  2
*U34
 70
     1
 10
0.0
 20
0.0
 30
0.0
  3
*U34
  1

  0
LINE
  5
101D
  8
TOPLAYER
 62
     1
 10
1.5000008099999991
 20
0.3500031099999999
 30
0.0
 11
3.3999995499999991
 21
0.3500031099999999
 31
0.0
210
0.0
220
0.0
230
-1.0
  0
LINE
  5
101E
  8
TOPLAYER
 62
     1
 10
3.3999995499999991
 20
0.3500031099999999
 30
0.0
 11
3.3999995499999991
 21
-0.34999803
 31
0.0
210
0.0
220
0.0
230
-1.0
  0
LINE
  5
101F
  8
TOPLAYER
 62
     1
 10
3.3999995499999991
 20
-0.34999803
 30
0.0
 11
1.5000008099999991
 21
-0.34999803
 31
0.0
210
0.0
220
0.0
230
-1.0
  0
LINE
  5
1020
  8
TOPLAYER
 62
     1
 10
1.5000008099999991
 20
-0.34999803
 30
0.0
 11
1.5000008099999991
 21
0.3500031099999999
 31
0.0
210
0.0
220
0.0
230
-1.0
  0
ENDBLK
  5
1022
  8
0
  0
BLOCK
  8
0
  2
*U35
 70
     1
 10
0.0
 20
0.0
 30
0.0
  3
*U35
  1

  0
SOLID
  5
1024
  8
TOPLAYER
  6
CONTINUOUS
 62
     1
 10
-1.5000008099999991
 20
0.35000311
 30
0.0
 11
-3.3999995499999991
 21
-0.34999803
 31
0.0
 12
-1.5000008099999991
 22
-0.34999803
 32
0.0
 13
-1.5000008099999991
 23
-0.34999803
 33
0.0
210
0.0
220
0.0
230
-1.0
  0
SOLID
  5
1025
  8
TOPLAYER
  6
CONTINUOUS
 62
     1
 10
-1.5000008099999991
 20
0.35000311
 30
0.0
 11
-3.3999995499999991
 21
0.35000311
 31
0.0
 12
-3.3999995499999991
 22
-0.34999803
 32
0.0
 13
-3.3999995499999991
 23
-0.34999803
 33
0.0
210
0.0
220
0.0
230
-1.0
  0
LINE
  5
1026
  8
TOPLAYER
  6
CONTINUOUS
 62
     1
 10
1.5000008099999991
 20
-0.34999803
 30
0.0
 11
1.5000008099999991
 21
0.35000311
 31
0.0
  0
LINE
  5
1027
  8
TOPLAYER
  6
CONTINUOUS
 62
     1
 10
3.3999995499999991
 20
0.35000311
 30
0.0
 11
3.3999995499999991
 21
-0.34999803
 31
0.0
  0
ENDBLK
  5
1029
  8
0
  0
BLOCK
  8
0
  2
*U36
 70
     1
 10
0.0
 20
0.0
 30
0.0
  3
*U36
  1

  0
LINE
  5
102B
  8
TOPLAYER
 62
     1
 10
1.5000008099999991
 20
-1.0499966299999981
 30
0.0
 11
3.3999995499999991
 21
-1.0499966299999981
 31
0.0
210
0.0
220
0.0
230
-1.0
  0
LINE
  5
102C
  8
TOPLAYER
 62
     1
 10
3.3999995499999991
 20
-1.0499966299999981
 30
0.0
 11
3.3999995499999991
 21
-1.74999777
 31
0.0
210
0.0
220
0.0
230
-1.0
  0
LINE
  5
102D
  8
TOPLAYER
 62
     1
 10
3.3999995499999991
 20
-1.74999777
 30
0.0
 11
1.5000008099999991
 21
-1.74999777
 31
0.0
210
0.0
220
0.0
230
-1.0
  0
LINE
  5
102E
  8
TOPLAYER
 62
     1
 10
1.5000008099999991
 20
-1.74999777
 30
0.0
 11
1.5000008099999991
 21
-1.0499966299999981
 31
0.0
210
0.0
220
0.0
230
-1.0
  0
ENDBLK
  5
1030
  8
0
  0
BLOCK
  8
0
  2
*U37
 70
     1
 10
0.0
 20
0.0
 30
0.0
  3
*U37
  1

  0
SOLID
  5
1032
  8
TOPLAYER
  6
CONTINUOUS
 62
     1
 10
-1.5000008099999991
 20
-1.0499966300000001
 30
0.0
 11
-3.3999995499999991
 21
-1.74999777
 31
0.0
 12
-1.5000008099999991
 22
-1.74999777
 32
0.0
 13
-1.5000008099999991
 23
-1.74999777
 33
0.0
210
0.0
220
0.0
230
-1.0
  0
SOLID
  5
1033
  8
TOPLAYER
  6
CONTINUOUS
 62
     1
 10
-1.5000008099999991
 20
-1.0499966300000001
 30
0.0
 11
-3.3999995499999991
 21
-1.0499966300000001
 31
0.0
 12
-3.3999995499999991
 22
-1.74999777
 32
0.0
 13
-3.3999995499999991
 23
-1.74999777
 33
0.0
210
0.0
220
0.0
230
-1.0
  0
LINE
  5
1034
  8
TOPLAYER
  6
CONTINUOUS
 62
     1
 10
1.5000008099999991
 20
-1.74999777
 30
0.0
 11
1.5000008099999991
 21
-1.0499966300000001
 31
0.0
  0
LINE
  5
1035
  8
TOPLAYER
  6
CONTINUOUS
 62
     1
 10
3.3999995499999991
 20
-1.0499966300000001
 30
0.0
 11
3.3999995499999991
 21
-1.74999777
 31
0.0
  0
ENDBLK
  5
1037
  8
0
  0
BLOCK
  8
0
  2
*U38
 70
     1
 10
0.0
 20
0.0
 30
0.0
  3
*U38
  1

  0
LINE
  5
1039
  8
TOPLAYER
 62
     1
 10
-3.3999995499999991
 20
-1.0499966299999981
 30
0.0
 11
-1.5000008099999991
 21
-1.0499966299999981
 31
0.0
210
0.0
220
0.0
230
-1.0
  0
LINE
  5
103A
  8
TOPLAYER
 62
     1
 10
-1.5000008099999991
 20
-1.0499966299999981
 30
0.0
 11
-1.5000008099999991
 21
-1.74999777
 31
0.0
210
0.0
220
0.0
230
-1.0
  0
LINE
  5
103B
  8
TOPLAYER
 62
     1
 10
-1.5000008099999991
 20
-1.74999777
 30
0.0
 11
-3.3999995499999991
 21
-1.74999777
 31
0.0
210
0.0
220
0.0
230
-1.0
  0
LINE
  5
103C
  8
TOPLAYER
 62
     1
 10
-3.3999995499999991
 20
-1.74999777
 30
0.0
 11
-3.3999995499999991
 21
-1.0499966299999981
 31
0.0
210
0.0
220
0.0
230
-1.0
  0
ENDBLK
  5
103E
  8
0
  0
BLOCK
  8
0
  2
*U39
 70
     1
 10
0.0
 20
0.0
 30
0.0
  3
*U39
  1

  0
SOLID
  5
1040
  8
TOPLAYER
  6
CONTINUOUS
 62
     1
 10
3.3999995499999991
 20
-1.0499966300000001
 30
0.0
 11
1.5000008099999991
 21
-1.74999777
 31
0.0
 12
3.3999995499999991
 22
-1.74999777
 32
0.0
 13
3.3999995499999991
 23
-1.74999777
 33
0.0
210
0.0
220
0.0
230
-1.0
  0
SOLID
  5
1041
  8
TOPLAYER
  6
CONTINUOUS
 62
     1
 10
3.3999995499999991
 20
-1.0499966300000001
 30
0.0
 11
1.5000008099999991
 21
-1.0499966300000001
 31
0.0
 12
1.5000008099999991
 22
-1.74999777
 32
0.0
 13
1.5000008099999991
 23
-1.74999777
 33
0.0
210
0.0
220
0.0
230
-1.0
  0
LINE
  5
1042
  8
TOPLAYER
  6
CONTINUOUS
 62
     1
 10
-3.3999995499999991
 20
-1.74999777
 30
0.0
 11
-3.3999995499999991
 21
-1.0499966300000001
 31
0.0
  0
LINE
  5
1043
  8
TOPLAYER
  6
CONTINUOUS
 62
     1
 10
-1.5000008099999991
 20
-1.0499966300000001
 30
0.0
 11
-1.5000008099999991
 21
-1.74999777
 31
0.0
  0
ENDBLK
  5
1045
  8
0
  0
BLOCK
  8
0
  2
*U40
 70
     1
 10
0.0
 20
0.0
 30
0.0
  3
*U40
  1

  0
LINE
  5
1047
  8
TOPLAYER
 62
     1
 10
-3.3999995499999991
 20
0.5000028099999999
 30
0.0
 11
-1.5000008099999991
 21
0.5000028099999999
 31
0.0
210
0.0
220
0.0
230
-1.0
  0
LINE
  5
1048
  8
TOPLAYER
 62
     1
 10
-1.5000008099999991
 20
0.5000028099999999
 30
0.0
 11
-1.5000008099999991
 21
-0.49999773
 31
0.0
210
0.0
220
0.0
230
-1.0
  0
LINE
  5
1049
  8
TOPLAYER
 62
     1
 10
-1.5000008099999991
 20
-0.49999773
 30
0.0
 11
-3.3999995499999991
 21
-0.49999773
 31
0.0
210
0.0
220
0.0
230
-1.0
  0
LINE
  5
104A
  8
TOPLAYER
 62
     1
 10
-3.3999995499999991
 20
-0.49999773
 30
0.0
 11
-3.3999995499999991
 21
0.5000028099999999
 31
0.0
210
0.0
220
0.0
230
-1.0
  0
ENDBLK
  5
104C
  8
0
  0
BLOCK
  8
0
  2
*U41
 70
     1
 10
0.0
 20
0.0
 30
0.0
  3
*U41
  1

  0
SOLID
  5
104E
  8
TOPLAYER
  6
CONTINUOUS
 62
     1
 10
3.3999995499999991
 20
0.5000028099999999
 30
0.0
 11
1.5000008099999991
 21
-0.49999773
 31
0.0
 12
3.3999995499999991
 22
-0.49999773
 32
0.0
 13
3.3999995499999991
 23
-0.49999773
 33
0.0
210
0.0
220
0.0
230
-1.0
  0
SOLID
  5
104F
  8
TOPLAYER
  6
CONTINUOUS
 62
     1
 10
3.3999995499999991
 20
0.5000028099999999
 30
0.0
 11
1.5000008099999991
 21
0.5000028099999999
 31
0.0
 12
1.5000008099999991
 22
-0.49999773
 32
0.0
 13
1.5000008099999991
 23
-0.49999773
 33
0.0
210
0.0
220
0.0
230
-1.0
  0
LINE
  5
1050
  8
TOPLAYER
  6
CONTINUOUS
 62
     1
 10
-3.3999995499999991
 20
-0.49999773
 30
0.0
 11
-3.3999995499999991
 21
0.5000028099999999
 31
0.0
  0
LINE
  5
1051
  8
TOPLAYER
  6
CONTINUOUS
 62
     1
 10
-1.5000008099999991
 20
0.5000028099999999
 30
0.0
 11
-1.5000008099999991
 21
-0.49999773
 31
0.0
  0
ENDBLK
  5
1053
  8
0
  0
BLOCK
  8
0
  2
*U42
 70
     1
 10
0.0
 20
0.0
 30
0.0
  3
*U42
  1

  0
LINE
  5
1055
  8
TOPLAYER
 62
     1
 10
-3.3999995499999991
 20
1.7500028499999991
 30
0.0
 11
-1.5000008099999991
 21
1.7500028499999991
 31
0.0
210
0.0
220
0.0
230
-1.0
  0
LINE
  5
1056
  8
TOPLAYER
 62
     1
 10
-1.5000008099999991
 20
1.7500028499999991
 30
0.0
 11
-1.5000008099999991
 21
1.0500017099999981
 31
0.0
210
0.0
220
0.0
230
-1.0
  0
LINE
  5
1057
  8
TOPLAYER
 62
     1
 10
-1.5000008099999991
 20
1.0500017099999981
 30
0.0
 11
-3.3999995499999991
 21
1.0500017099999981
 31
0.0
210
0.0
220
0.0
230
-1.0
  0
LINE
  5
1058
  8
TOPLAYER
 62
     1
 10
-3.3999995499999991
 20
1.0500017099999981
 30
0.0
 11
-3.3999995499999991
 21
1.7500028499999991
 31
0.0
210
0.0
220
0.0
230
-1.0
  0
ENDBLK
  5
105A
  8
0
  0
BLOCK
  8
0
  2
*U43
 70
     1
 10
0.0
 20
0.0
 30
0.0
  3
*U43
  1

  0
SOLID
  5
105C
  8
TOPLAYER
  6
CONTINUOUS
 62
     1
 10
3.3999995499999991
 20
1.7500028499999991
 30
0.0
 11
1.5000008099999991
 21
1.0500017100000001
 31
0.0
 12
3.3999995499999991
 22
1.0500017100000001
 32
0.0
 13
3.3999995499999991
 23
1.0500017100000001
 33
0.0
210
0.0
220
0.0
230
-1.0
  0
SOLID
  5
105D
  8
TOPLAYER
  6
CONTINUOUS
 62
     1
 10
3.3999995499999991
 20
1.7500028499999991
 30
0.0
 11
1.5000008099999991
 21
1.7500028499999991
 31
0.0
 12
1.5000008099999991
 22
1.0500017100000001
 32
0.0
 13
1.5000008099999991
 23
1.0500017100000001
 33
0.0
210
0.0
220
0.0
230
-1.0
  0
LINE
  5
105E
  8
TOPLAYER
  6
CONTINUOUS
 62
     1
 10
-3.3999995499999991
 20
1.0500017100000001
 30
0.0
 11
-3.3999995499999991
 21
1.7500028499999991
 31
0.0
  0
LINE
  5
105F
  8
TOPLAYER
  6
CONTINUOUS
 62
     1
 10
-1.5000008099999991
 20
1.7500028499999991
 30
0.0
 11
-1.5000008099999991
 21
1.0500017100000001
 31
0.0
  0
ENDBLK
  5
1061
  8
0
  0
BLOCK
  8
0
  2
OPTICAL_SENSOR_SMD_7
 70
     0
 10
0.0
 20
0.0
 30
0.0
  3
OPTICAL_SENSOR_SMD_7
  1

  0
INSERT
  5
276
  8
0
  2
*U45
 10
0.0
 20
0.0
 30
0.0
  0
INSERT
  5
277
  8
TOPLAYER
  6
CONTINUOUS
 62
     1
  2
*U46
 10
0.0
 20
0.0
 30
0.0
1001
ACAD
1002
{
1000
R14_HATCH_DATA
1000
277
1011
1.0
1021
0.0
1031
0.0
1021
0.0
1031
0.0
1011
0.0
1021
0.0
1031
0.0
1021
1.0
1031
0.0
1011
0.0
1021
0.0
1031
0.0
1021
0.0
1031
1.0
1040
0.0
1010
0.0
1020
0.0
1030
1.0
1000
SOLID
1070
     1
1070
     1
1071
        1
1071
        1
1071
        4
1070
     1
1040
1.5000008099999991
1040
1.7500028499999991
1040
3.3999995499999991
1040
1.7500028499999991
1070
     1
1040
3.3999995499999991
1040
1.7500028499999991
1040
3.3999995499999991
1040
1.0500017100000001
1070
     1
1040
3.3999995499999991
1040
1.0500017100000001
1040
1.5000008099999991
1040
1.0500017100000001
1070
     1
1040
1.5000008099999991
1040
1.0500017100000001
1040
1.5000008099999991
1040
1.7500028499999991
1071
        1
1005
276
1070
     0
1070
     1
1071
        0
1002
}
  0
INSERT
  5
27C
  8
0
  2
*U47
 10
0.0
 20
0.0
 30
0.0
  0
INSERT
  5
27D
  8
TOPLAYER
  6
CONTINUOUS
 62
     1
  2
*U48
 10
0.0
 20
0.0
 30
0.0
1001
ACAD
1002
{
1000
R14_HATCH_DATA
1000
27D
1011
1.0
1021
0.0
1031
0.0
1021
0.0
1031
0.0
1011
0.0
1021
0.0
1031
0.0
1021
1.0
1031
0.0
1011
0.0
1021
0.0
1031
0.0
1021
0.0
1031
1.0
1040
0.0
1010
0.0
1020
0.0
1030
1.0
1000
SOLID
1070
     1
1070
     1
1071
        1
1071
        1
1071
        4
1070
     1
1040
1.5000008099999991
1040
0.35000311
1040
3.3999995499999991
1040
0.35000311
1070
     1
1040
3.3999995499999991
1040
0.35000311
1040
3.3999995499999991
1040
-0.34999803
1070
     1
1040
3.3999995499999991
1040
-0.34999803
1040
1.5000008099999991
1040
-0.34999803
1070
     1
1040
1.5000008099999991
1040
-0.34999803
1040
1.5000008099999991
1040
0.3500031099999999
1071
        1
1005
27C
1070
     0
1070
     1
1071
        0
1002
}
  0
INSERT
  5
282
  8
0
  2
*U49
 10
0.0
 20
0.0
 30
0.0
  0
INSERT
  5
283
  8
TOPLAYER
  6
CONTINUOUS
 62
     1
  2
*U50
 10
0.0
 20
0.0
 30
0.0
1001
ACAD
1002
{
1000
R14_HATCH_DATA
1000
283
1011
1.0
1021
0.0
1031
0.0
1021
0.0
1031
0.0
1011
0.0
1021
0.0
1031
0.0
1021
1.0
1031
0.0
1011
0.0
1021
0.0
1031
0.0
1021
0.0
1031
1.0
1040
0.0
1010
0.0
1020
0.0
1030
1.0
1000
SOLID
1070
     1
1070
     1
1071
        1
1071
        1
1071
        4
1070
     1
1040
1.5000008099999991
1040
-1.0499966300000001
1040
3.3999995499999991
1040
-1.0499966300000001
1070
     1
1040
3.3999995499999991
1040
-1.0499966300000001
1040
3.3999995499999991
1040
-1.74999777
1070
     1
1040
3.3999995499999991
1040
-1.74999777
1040
1.5000008099999991
1040
-1.74999777
1070
     1
1040
1.5000008099999991
1040
-1.74999777
1040
1.5000008099999991
1040
-1.0499966300000001
1071
        1
1005
282
1070
     0
1070
     1
1071
        0
1002
}
  0
INSERT
  5
288
  8
0
  2
*U51
 10
0.0
 20
0.0
 30
0.0
  0
INSERT
  5
289
  8
TOPLAYER
  6
CONTINUOUS
 62
     1
  2
*U52
 10
0.0
 20
0.0
 30
0.0
1001
ACAD
1002
{
1000
R14_HATCH_DATA
1000
289
1011
1.0
1021
0.0
1031
0.0
1021
0.0
1031
0.0
1011
0.0
1021
0.0
1031
0.0
1021
1.0
1031
0.0
1011
0.0
1021
0.0
1031
0.0
1021
0.0
1031
1.0
1040
0.0
1010
0.0
1020
0.0
1030
1.0
1000
SOLID
1070
     1
1070
     1
1071
        1
1071
        1
1071
        4
1070
     1
1040
-3.3999995499999991
1040
-1.0499966300000001
1040
-1.5000008099999991
1040
-1.0499966300000001
1070
     1
1040
-1.5000008099999991
1040
-1.0499966300000001
1040
-1.5000008099999991
1040
-1.74999777
1070
     1
1040
-1.5000008099999991
1040
-1.74999777
1040
-3.3999995499999991
1040
-1.74999777
1070
     1
1040
-3.3999995499999991
1040
-1.74999777
1040
-3.3999995499999991
1040
-1.0499966300000001
1071
        1
1005
288
1070
     0
1070
     1
1071
        0
1002
}
  0
INSERT
  5
28E
  8
0
  2
*U53
 10
0.0
 20
0.0
 30
0.0
  0
INSERT
  5
28F
  8
TOPLAYER
  6
CONTINUOUS
 62
     1
  2
*U54
 10
0.0
 20
0.0
 30
0.0
1001
ACAD
1002
{
1000
R14_HATCH_DATA
1000
28F
1011
1.0
1021
0.0
1031
0.0
1021
0.0
1031
0.0
1011
0.0
1021
0.0
1031
0.0
1021
1.0
1031
0.0
1011
0.0
1021
0.0
1031
0.0
1021
0.0
1031
1.0
1040
0.0
1010
0.0
1020
0.0
1030
1.0
1000
SOLID
1070
     1
1070
     1
1071
        1
1071
        1
1071
        4
1070
     1
1040
-3.3999995499999991
1040
0.5000028099999999
1040
-1.5000008099999991
1040
0.5000028099999999
1070
     1
1040
-1.5000008099999991
1040
0.5000028099999999
1040
-1.5000008099999991
1040
-0.49999773
1070
     1
1040
-1.5000008099999991
1040
-0.49999773
1040
-3.3999995499999991
1040
-0.49999773
1070
     1
1040
-3.3999995499999991
1040
-0.49999773
1040
-3.3999995499999991
1040
0.5000028099999998
1071
        1
1005
28E
1070
     0
1070
     1
1071
        0
1002
}
  0
INSERT
  5
294
  8
0
  2
*U55
 10
0.0
 20
0.0
 30
0.0
  0
INSERT
  5
295
  8
TOPLAYER
  6
CONTINUOUS
 62
     1
  2
*U56
 10
0.0
 20
0.0
 30
0.0
1001
ACAD
1002
{
1000
R14_HATCH_DATA
1000
295
1011
1.0
1021
0.0
1031
0.0
1021
0.0
1031
0.0
1011
0.0
1021
0.0
1031
0.0
1021
1.0
1031
0.0
1011
0.0
1021
0.0
1031
0.0
1021
0.0
1031
1.0
1040
0.0
1010
0.0
1020
0.0
1030
1.0
1000
SOLID
1070
     1
1070
     1
1071
        1
1071
        1
1071
        4
1070
     1
1040
-3.3999995499999991
1040
1.7500028499999991
1040
-1.5000008099999991
1040
1.7500028499999991
1070
     1
1040
-1.5000008099999991
1040
1.7500028499999991
1040
-1.5000008099999991
1040
1.0500017100000001
1070
     1
1040
-1.5000008099999991
1040
1.0500017100000001
1040
-3.3999995499999991
1040
1.0500017100000001
1070
     1
1040
-3.3999995499999991
1040
1.0500017100000001
1040
-3.3999995499999991
1040
1.7500028499999991
1071
        1
1005
294
1070
     0
1070
     1
1071
        0
1002
}
  0
LINE
  5
296
  8
TOPLAYER
 10
3.400000819999998
 20
-1.049992819999999
 30
0.0
 11
1.50000716
 21
-1.0499877399999991
 31
0.0
  0
LINE
  5
297
  8
TOPLAYER
 10
1.50000716
 20
-1.0499877399999991
 30
0.0
 11
1.499999539999999
 21
-1.7499964999999991
 31
0.0
  0
LINE
  5
298
  8
TOPLAYER
 10
1.499999539999999
 20
-1.7499964999999991
 30
0.0
 11
2.4999721400000001
 21
-1.7499888800000001
 31
0.0
  0
LINE
  5
299
  8
TOPLAYER
 10
2.4999721400000001
 20
-1.7499888800000001
 30
0.0
 11
2.4999721400000001
 21
-2.24999042
 31
0.0
  0
LINE
  5
29A
  8
TOPLAYER
 10
2.4999721400000001
 20
-2.24999042
 30
0.0
 11
2.6086130199999991
 21
-2.2484842
 31
0.0
  0
LINE
  5
29B
  8
TOPLAYER
 10
2.6086130199999991
 20
-2.2484842
 30
0.0
 11
2.81957272
 21
-2.1963659400000002
 31
0.0
  0
LINE
  5
29C
  8
TOPLAYER
 10
2.81957272
 20
-2.1963659400000002
 30
0.0
 11
3.0132578799999981
 21
-2.097841879999998
 31
0.0
  0
LINE
  5
29D
  8
TOPLAYER
 10
3.0132578799999981
 20
-2.097841879999998
 30
0.0
 11
3.1796101000000001
 21
-1.9580301200000001
 31
0.0
  0
LINE
  5
29E
  8
TOPLAYER
 10
3.1796101000000001
 20
-1.9580301200000001
 30
0.0
 11
3.3099959199999991
 21
-1.7841899800000001
 31
0.0
  0
LINE
  5
29F
  8
TOPLAYER
 10
3.3099959199999991
 20
-1.7841899800000001
 30
0.0
 11
3.39764116
 21
-1.5853460800000001
 31
0.0
  0
LINE
  5
2A0
  8
TOPLAYER
 10
3.39764116
 20
-1.5853460800000001
 30
0.0
 11
3.43799922
 21
-1.3718235199999991
 31
0.0
  0
LINE
  5
2A1
  8
TOPLAYER
 10
3.43799922
 20
-1.3718235199999991
 30
0.0
 11
3.4289695199999981
 21
-1.1547093999999991
 31
0.0
  0
LINE
  5
2A2
  8
TOPLAYER
 10
3.4289695199999981
 20
-1.1547093999999991
 30
0.0
 11
3.3999982800000002
 21
-1.0499902800000001
 31
0.0
  0
LINE
  5
2A3
  8
TOPLAYER
 10
3.3999982800000002
 20
-1.0499902800000001
 30
0.0
 11
3.400000819999998
 21
-1.049992819999999
 31
0.0
  0
LINE
  5
2A4
  8
TOPLAYER
 10
-3.3999931999999982
 20
1.050008059999999
 30
0.0
 11
-1.499999539999999
 21
1.050002979999999
 31
0.0
  0
LINE
  5
2A5
  8
TOPLAYER
 10
-1.499999539999999
 20
1.050002979999999
 30
0.0
 11
-1.499994459999999
 21
1.75001428
 31
0.0
  0
LINE
  5
2A6
  8
TOPLAYER
 10
-1.499994459999999
 20
1.75001428
 30
0.0
 11
-2.499964519999998
 21
1.7500092
 31
0.0
  0
LINE
  5
2A7
  8
TOPLAYER
 10
-2.499964519999998
 20
1.7500092
 30
0.0
 11
-2.499967059999999
 21
2.250008199999999
 31
0.0
  0
LINE
  5
2A8
  8
TOPLAYER
 10
-2.499967059999999
 20
2.250008199999999
 30
0.0
 11
-2.6086079400000002
 21
2.248501979999999
 31
0.0
  0
LINE
  5
2A9
  8
TOPLAYER
 10
-2.6086079400000002
 20
2.248501979999999
 30
0.0
 11
-2.819567639999998
 21
2.19638372
 31
0.0
  0
LINE
  5
2AA
  8
TOPLAYER
 10
-2.819567639999998
 20
2.19638372
 30
0.0
 11
-3.0132528000000001
 21
2.0978596600000001
 31
0.0
  0
LINE
  5
2AB
  8
TOPLAYER
 10
-3.0132528000000001
 20
2.0978596600000001
 30
0.0
 11
-3.179605019999999
 21
1.9580479
 31
0.0
  0
LINE
  5
2AC
  8
TOPLAYER
 10
-3.179605019999999
 20
1.9580479
 30
0.0
 11
-3.3099908400000002
 21
1.784207759999999
 31
0.0
  0
LINE
  5
2AD
  8
TOPLAYER
 10
-3.3099908400000002
 20
1.784207759999999
 30
0.0
 11
-3.3976360799999981
 21
1.58536386
 31
0.0
  0
LINE
  5
2AE
  8
TOPLAYER
 10
-3.3976360799999981
 20
1.58536386
 30
0.0
 11
-3.437994139999998
 21
1.3718413
 31
0.0
  0
LINE
  5
2AF
  8
TOPLAYER
 10
-3.437994139999998
 20
1.3718413
 30
0.0
 11
-3.4289644400000001
 21
1.1547271800000001
 31
0.0
  0
LINE
  5
2B0
  8
TOPLAYER
 10
-3.4289644400000001
 20
1.1547271800000001
 30
0.0
 11
-3.3999931999999982
 21
1.050008059999999
 31
0.0
  0
LINE
  5
2B1
  8
TOPLAYER
 10
-3.3999931999999982
 20
1.050008059999999
 30
0.0
 11
-3.3999931999999982
 21
1.050008059999999
 31
0.0
  0
LINE
  5
2B2
  8
TOPLAYER
 10
3.4009939600000001
 20
1.0510062799999991
 30
0.0
 11
1.5010003000000001
 21
1.0510011999999991
 31
0.0
  0
LINE
  5
2B3
  8
TOPLAYER
 10
1.5010003000000001
 20
1.0510011999999991
 30
0.0
 11
1.5009952200000001
 21
1.7510125000000001
 31
0.0
  0
LINE
  5
2B4
  8
TOPLAYER
 10
1.5009952200000001
 20
1.7510125000000001
 30
0.0
 11
2.5009652799999991
 21
1.7510074200000001
 31
0.0
  0
LINE
  5
2B5
  8
TOPLAYER
 10
2.5009652799999991
 20
1.7510074200000001
 30
0.0
 11
2.5009652799999991
 21
2.2510064199999991
 31
0.0
  0
LINE
  5
2B6
  8
TOPLAYER
 10
2.5009652799999991
 20
2.2510064199999991
 30
0.0
 11
2.609606159999998
 21
2.2495001999999991
 31
0.0
  0
LINE
  5
2B7
  8
TOPLAYER
 10
2.609606159999998
 20
2.2495001999999991
 30
0.0
 11
2.8205658599999981
 21
2.1973819400000001
 31
0.0
  0
LINE
  5
2B8
  8
TOPLAYER
 10
2.8205658599999981
 20
2.1973819400000001
 30
0.0
 11
3.0142510200000001
 21
2.0988578800000002
 31
0.0
  0
LINE
  5
2B9
  8
TOPLAYER
 10
3.0142510200000001
 20
2.0988578800000002
 30
0.0
 11
3.1806032399999982
 21
1.95904612
 31
0.0
  0
LINE
  5
2BA
  8
TOPLAYER
 10
3.1806032399999982
 20
1.95904612
 30
0.0
 11
3.310989059999998
 21
1.7852059799999991
 31
0.0
  0
LINE
  5
2BB
  8
TOPLAYER
 10
3.310989059999998
 20
1.7852059799999991
 30
0.0
 11
3.3986342999999981
 21
1.586362079999998
 31
0.0
  0
LINE
  5
2BC
  8
TOPLAYER
 10
3.3986342999999981
 20
1.586362079999998
 30
0.0
 11
3.4389923599999981
 21
1.3728395200000001
 31
0.0
  0
LINE
  5
2BD
  8
TOPLAYER
 10
3.4389923599999981
 20
1.3728395200000001
 30
0.0
 11
3.4299626600000002
 21
1.155725399999999
 31
0.0
  0
LINE
  5
2BE
  8
TOPLAYER
 10
3.4299626600000002
 20
1.155725399999999
 30
0.0
 11
3.4009914199999991
 21
1.0510062799999991
 31
0.0
  0
LINE
  5
2BF
  8
TOPLAYER
 10
3.4009914199999991
 20
1.0510062799999991
 30
0.0
 11
3.4009939600000001
 21
1.0510062799999991
 31
0.0
  0
LINE
  5
2C0
  8
TOPLAYER
 10
-3.4009990399999981
 20
-1.049997899999999
 30
0.0
 11
-1.5010053800000001
 21
-1.049992819999999
 31
0.0
  0
LINE
  5
2C1
  8
TOPLAYER
 10
-1.5010053800000001
 20
-1.049992819999999
 30
0.0
 11
-1.5010003000000001
 21
-1.7499990400000001
 31
0.0
  0
LINE
  5
2C2
  8
TOPLAYER
 10
-1.5010003000000001
 20
-1.7499990400000001
 30
0.0
 11
-2.5009703600000002
 21
-1.7499939600000001
 31
0.0
  0
LINE
  5
2C3
  8
TOPLAYER
 10
-2.5009703600000002
 20
-1.7499939600000001
 30
0.0
 11
-2.5009728999999981
 21
-2.2499954999999989
 31
0.0
  0
LINE
  5
2C4
  8
TOPLAYER
 10
-2.5009728999999981
 20
-2.2499954999999989
 30
0.0
 11
-2.6096137800000001
 21
-2.248489279999998
 31
0.0
  0
LINE
  5
2C5
  8
TOPLAYER
 10
-2.6096137800000001
 20
-2.248489279999998
 30
0.0
 11
-2.8205734800000002
 21
-2.1963710199999991
 31
0.0
  0
LINE
  5
2C6
  8
TOPLAYER
 10
-2.8205734800000002
 20
-2.1963710199999991
 30
0.0
 11
-3.0142586399999991
 21
-2.09784696
 31
0.0
  0
LINE
  5
2C7
  8
TOPLAYER
 10
-3.0142586399999991
 20
-2.09784696
 30
0.0
 11
-3.180610859999998
 21
-1.958035199999999
 31
0.0
  0
LINE
  5
2C8
  8
TOPLAYER
 10
-3.180610859999998
 20
-1.958035199999999
 30
0.0
 11
-3.3109966800000001
 21
-1.7841950600000001
 31
0.0
  0
LINE
  5
2C9
  8
TOPLAYER
 10
-3.3109966800000001
 20
-1.7841950600000001
 30
0.0
 11
-3.3986419200000002
 21
-1.5853511600000001
 31
0.0
  0
LINE
  5
2CA
  8
TOPLAYER
 10
-3.3986419200000002
 20
-1.5853511600000001
 30
0.0
 11
-3.4389999800000002
 21
-1.3718285999999991
 31
0.0
  0
LINE
  5
2CB
  8
TOPLAYER
 10
-3.4389999800000002
 20
-1.3718285999999991
 30
0.0
 11
-3.42997028
 21
-1.1547144799999991
 31
0.0
  0
LINE
  5
2CC
  8
TOPLAYER
 10
-3.42997028
 20
-1.1547144799999991
 30
0.0
 11
-3.4009990399999981
 21
-1.04999536
 31
0.0
  0
LINE
  5
2CD
  8
TOPLAYER
 10
-3.4009990399999981
 20
-1.04999536
 30
0.0
 11
-3.4009990399999981
 21
-1.049997899999999
 31
0.0
  0
ENDBLK
  5
271
  8
0
  0
BLOCK
  8
0
  2
*U45
 70
     1
 10
0.0
 20
0.0
 30
0.0
  3
*U45
  1

  0
LINE
  5
1063
  8
TOPLAYER
 62
     1
 10
1.5000008099999991
 20
1.7500028499999991
 30
0.0
 11
3.3999995499999991
 21
1.7500028499999991
 31
0.0
210
0.0
220
0.0
230
-1.0
  0
LINE
  5
1064
  8
TOPLAYER
 62
     1
 10
3.3999995499999991
 20
1.7500028499999991
 30
0.0
 11
3.3999995499999991
 21
1.0500017099999981
 31
0.0
210
0.0
220
0.0
230
-1.0
  0
LINE
  5
1065
  8
TOPLAYER
 62
     1
 10
3.3999995499999991
 20
1.0500017099999981
 30
0.0
 11
1.5000008099999991
 21
1.0500017099999981
 31
0.0
210
0.0
220
0.0
230
-1.0
  0
LINE
  5
1066
  8
TOPLAYER
 62
     1
 10
1.5000008099999991
 20
1.0500017099999981
 30
0.0
 11
1.5000008099999991
 21
1.7500028499999991
 31
0.0
210
0.0
220
0.0
230
-1.0
  0
ENDBLK
  5
1068
  8
0
  0
BLOCK
  8
0
  2
*U46
 70
     1
 10
0.0
 20
0.0
 30
0.0
  3
*U46
  1

  0
SOLID
  5
106A
  8
TOPLAYER
  6
CONTINUOUS
 62
     1
 10
-1.5000008099999991
 20
1.7500028499999991
 30
0.0
 11
-3.3999995499999991
 21
1.0500017100000001
 31
0.0
 12
-1.5000008099999991
 22
1.0500017100000001
 32
0.0
 13
-1.5000008099999991
 23
1.0500017100000001
 33
0.0
210
0.0
220
0.0
230
-1.0
  0
SOLID
  5
106B
  8
TOPLAYER
  6
CONTINUOUS
 62
     1
 10
-1.5000008099999991
 20
1.7500028499999991
 30
0.0
 11
-3.3999995499999991
 21
1.7500028499999991
 31
0.0
 12
-3.3999995499999991
 22
1.0500017100000001
 32
0.0
 13
-3.3999995499999991
 23
1.0500017100000001
 33
0.0
210
0.0
220
0.0
230
-1.0
  0
LINE
  5
106C
  8
TOPLAYER
  6
CONTINUOUS
 62
     1
 10
1.5000008099999991
 20
1.0500017100000001
 30
0.0
 11
1.5000008099999991
 21
1.7500028499999991
 31
0.0
  0
LINE
  5
106D
  8
TOPLAYER
  6
CONTINUOUS
 62
     1
 10
3.3999995499999991
 20
1.7500028499999991
 30
0.0
 11
3.3999995499999991
 21
1.0500017100000001
 31
0.0
  0
ENDBLK
  5
106F
  8
0
  0
BLOCK
  8
0
  2
*U47
 70
     1
 10
0.0
 20
0.0
 30
0.0
  3
*U47
  1

  0
LINE
  5
1071
  8
TOPLAYER
 62
     1
 10
1.5000008099999991
 20
0.3500031099999999
 30
0.0
 11
3.3999995499999991
 21
0.3500031099999999
 31
0.0
210
0.0
220
0.0
230
-1.0
  0
LINE
  5
1072
  8
TOPLAYER
 62
     1
 10
3.3999995499999991
 20
0.3500031099999999
 30
0.0
 11
3.3999995499999991
 21
-0.34999803
 31
0.0
210
0.0
220
0.0
230
-1.0
  0
LINE
  5
1073
  8
TOPLAYER
 62
     1
 10
3.3999995499999991
 20
-0.34999803
 30
0.0
 11
1.5000008099999991
 21
-0.34999803
 31
0.0
210
0.0
220
0.0
230
-1.0
  0
LINE
  5
1074
  8
TOPLAYER
 62
     1
 10
1.5000008099999991
 20
-0.34999803
 30
0.0
 11
1.5000008099999991
 21
0.3500031099999999
 31
0.0
210
0.0
220
0.0
230
-1.0
  0
ENDBLK
  5
1076
  8
0
  0
BLOCK
  8
0
  2
*U48
 70
     1
 10
0.0
 20
0.0
 30
0.0
  3
*U48
  1

  0
SOLID
  5
1078
  8
TOPLAYER
  6
CONTINUOUS
 62
     1
 10
-1.5000008099999991
 20
0.35000311
 30
0.0
 11
-3.3999995499999991
 21
-0.34999803
 31
0.0
 12
-1.5000008099999991
 22
-0.34999803
 32
0.0
 13
-1.5000008099999991
 23
-0.34999803
 33
0.0
210
0.0
220
0.0
230
-1.0
  0
SOLID
  5
1079
  8
TOPLAYER
  6
CONTINUOUS
 62
     1
 10
-1.5000008099999991
 20
0.35000311
 30
0.0
 11
-3.3999995499999991
 21
0.35000311
 31
0.0
 12
-3.3999995499999991
 22
-0.34999803
 32
0.0
 13
-3.3999995499999991
 23
-0.34999803
 33
0.0
210
0.0
220
0.0
230
-1.0
  0
LINE
  5
107A
  8
TOPLAYER
  6
CONTINUOUS
 62
     1
 10
1.5000008099999991
 20
-0.34999803
 30
0.0
 11
1.5000008099999991
 21
0.35000311
 31
0.0
  0
LINE
  5
107B
  8
TOPLAYER
  6
CONTINUOUS
 62
     1
 10
3.3999995499999991
 20
0.35000311
 30
0.0
 11
3.3999995499999991
 21
-0.34999803
 31
0.0
  0
ENDBLK
  5
107D
  8
0
  0
BLOCK
  8
0
  2
*U49
 70
     1
 10
0.0
 20
0.0
 30
0.0
  3
*U49
  1

  0
LINE
  5
107F
  8
TOPLAYER
 62
     1
 10
1.5000008099999991
 20
-1.0499966299999981
 30
0.0
 11
3.3999995499999991
 21
-1.0499966299999981
 31
0.0
210
0.0
220
0.0
230
-1.0
  0
LINE
  5
1080
  8
TOPLAYER
 62
     1
 10
3.3999995499999991
 20
-1.0499966299999981
 30
0.0
 11
3.3999995499999991
 21
-1.74999777
 31
0.0
210
0.0
220
0.0
230
-1.0
  0
LINE
  5
1081
  8
TOPLAYER
 62
     1
 10
3.3999995499999991
 20
-1.74999777
 30
0.0
 11
1.5000008099999991
 21
-1.74999777
 31
0.0
210
0.0
220
0.0
230
-1.0
  0
LINE
  5
1082
  8
TOPLAYER
 62
     1
 10
1.5000008099999991
 20
-1.74999777
 30
0.0
 11
1.5000008099999991
 21
-1.0499966299999981
 31
0.0
210
0.0
220
0.0
230
-1.0
  0
ENDBLK
  5
1084
  8
0
  0
BLOCK
  8
0
  2
*U50
 70
     1
 10
0.0
 20
0.0
 30
0.0
  3
*U50
  1

  0
SOLID
  5
1086
  8
TOPLAYER
  6
CONTINUOUS
 62
     1
 10
-1.5000008099999991
 20
-1.0499966300000001
 30
0.0
 11
-3.3999995499999991
 21
-1.74999777
 31
0.0
 12
-1.5000008099999991
 22
-1.74999777
 32
0.0
 13
-1.5000008099999991
 23
-1.74999777
 33
0.0
210
0.0
220
0.0
230
-1.0
  0
SOLID
  5
1087
  8
TOPLAYER
  6
CONTINUOUS
 62
     1
 10
-1.5000008099999991
 20
-1.0499966300000001
 30
0.0
 11
-3.3999995499999991
 21
-1.0499966300000001
 31
0.0
 12
-3.3999995499999991
 22
-1.74999777
 32
0.0
 13
-3.3999995499999991
 23
-1.74999777
 33
0.0
210
0.0
220
0.0
230
-1.0
  0
LINE
  5
1088
  8
TOPLAYER
  6
CONTINUOUS
 62
     1
 10
1.5000008099999991
 20
-1.74999777
 30
0.0
 11
1.5000008099999991
 21
-1.0499966300000001
 31
0.0
  0
LINE
  5
1089
  8
TOPLAYER
  6
CONTINUOUS
 62
     1
 10
3.3999995499999991
 20
-1.0499966300000001
 30
0.0
 11
3.3999995499999991
 21
-1.74999777
 31
0.0
  0
ENDBLK
  5
108B
  8
0
  0
BLOCK
  8
0
  2
*U51
 70
     1
 10
0.0
 20
0.0
 30
0.0
  3
*U51
  1

  0
LINE
  5
108D
  8
TOPLAYER
 62
     1
 10
-3.3999995499999991
 20
-1.0499966299999981
 30
0.0
 11
-1.5000008099999991
 21
-1.0499966299999981
 31
0.0
210
0.0
220
0.0
230
-1.0
  0
LINE
  5
108E
  8
TOPLAYER
 62
     1
 10
-1.5000008099999991
 20
-1.0499966299999981
 30
0.0
 11
-1.5000008099999991
 21
-1.74999777
 31
0.0
210
0.0
220
0.0
230
-1.0
  0
LINE
  5
108F
  8
TOPLAYER
 62
     1
 10
-1.5000008099999991
 20
-1.74999777
 30
0.0
 11
-3.3999995499999991
 21
-1.74999777
 31
0.0
210
0.0
220
0.0
230
-1.0
  0
LINE
  5
1090
  8
TOPLAYER
 62
     1
 10
-3.3999995499999991
 20
-1.74999777
 30
0.0
 11
-3.3999995499999991
 21
-1.0499966299999981
 31
0.0
210
0.0
220
0.0
230
-1.0
  0
ENDBLK
  5
1092
  8
0
  0
BLOCK
  8
0
  2
*U52
 70
     1
 10
0.0
 20
0.0
 30
0.0
  3
*U52
  1

  0
SOLID
  5
1094
  8
TOPLAYER
  6
CONTINUOUS
 62
     1
 10
3.3999995499999991
 20
-1.0499966300000001
 30
0.0
 11
1.5000008099999991
 21
-1.74999777
 31
0.0
 12
3.3999995499999991
 22
-1.74999777
 32
0.0
 13
3.3999995499999991
 23
-1.74999777
 33
0.0
210
0.0
220
0.0
230
-1.0
  0
SOLID
  5
1095
  8
TOPLAYER
  6
CONTINUOUS
 62
     1
 10
3.3999995499999991
 20
-1.0499966300000001
 30
0.0
 11
1.5000008099999991
 21
-1.0499966300000001
 31
0.0
 12
1.5000008099999991
 22
-1.74999777
 32
0.0
 13
1.5000008099999991
 23
-1.74999777
 33
0.0
210
0.0
220
0.0
230
-1.0
  0
LINE
  5
1096
  8
TOPLAYER
  6
CONTINUOUS
 62
     1
 10
-3.3999995499999991
 20
-1.74999777
 30
0.0
 11
-3.3999995499999991
 21
-1.0499966300000001
 31
0.0
  0
LINE
  5
1097
  8
TOPLAYER
  6
CONTINUOUS
 62
     1
 10
-1.5000008099999991
 20
-1.0499966300000001
 30
0.0
 11
-1.5000008099999991
 21
-1.74999777
 31
0.0
  0
ENDBLK
  5
1099
  8
0
  0
BLOCK
  8
0
  2
*U53
 70
     1
 10
0.0
 20
0.0
 30
0.0
  3
*U53
  1

  0
LINE
  5
109B
  8
TOPLAYER
 62
     1
 10
-3.3999995499999991
 20
0.5000028099999999
 30
0.0
 11
-1.5000008099999991
 21
0.5000028099999999
 31
0.0
210
0.0
220
0.0
230
-1.0
  0
LINE
  5
109C
  8
TOPLAYER
 62
     1
 10
-1.5000008099999991
 20
0.5000028099999999
 30
0.0
 11
-1.5000008099999991
 21
-0.49999773
 31
0.0
210
0.0
220
0.0
230
-1.0
  0
LINE
  5
109D
  8
TOPLAYER
 62
     1
 10
-1.5000008099999991
 20
-0.49999773
 30
0.0
 11
-3.3999995499999991
 21
-0.49999773
 31
0.0
210
0.0
220
0.0
230
-1.0
  0
LINE
  5
109E
  8
TOPLAYER
 62
     1
 10
-3.3999995499999991
 20
-0.49999773
 30
0.0
 11
-3.3999995499999991
 21
0.5000028099999999
 31
0.0
210
0.0
220
0.0
230
-1.0
  0
ENDBLK
  5
10A0
  8
0
  0
BLOCK
  8
0
  2
*U54
 70
     1
 10
0.0
 20
0.0
 30
0.0
  3
*U54
  1

  0
SOLID
  5
10A2
  8
TOPLAYER
  6
CONTINUOUS
 62
     1
 10
3.3999995499999991
 20
0.5000028099999999
 30
0.0
 11
1.5000008099999991
 21
-0.49999773
 31
0.0
 12
3.3999995499999991
 22
-0.49999773
 32
0.0
 13
3.3999995499999991
 23
-0.49999773
 33
0.0
210
0.0
220
0.0
230
-1.0
  0
SOLID
  5
10A3
  8
TOPLAYER
  6
CONTINUOUS
 62
     1
 10
3.3999995499999991
 20
0.5000028099999999
 30
0.0
 11
1.5000008099999991
 21
0.5000028099999999
 31
0.0
 12
1.5000008099999991
 22
-0.49999773
 32
0.0
 13
1.5000008099999991
 23
-0.49999773
 33
0.0
210
0.0
220
0.0
230
-1.0
  0
LINE
  5
10A4
  8
TOPLAYER
  6
CONTINUOUS
 62
     1
 10
-3.3999995499999991
 20
-0.49999773
 30
0.0
 11
-3.3999995499999991
 21
0.5000028099999999
 31
0.0
  0
LINE
  5
10A5
  8
TOPLAYER
  6
CONTINUOUS
 62
     1
 10
-1.5000008099999991
 20
0.5000028099999999
 30
0.0
 11
-1.5000008099999991
 21
-0.49999773
 31
0.0
  0
ENDBLK
  5
10A7
  8
0
  0
BLOCK
  8
0
  2
*U55
 70
     1
 10
0.0
 20
0.0
 30
0.0
  3
*U55
  1

  0
LINE
  5
10A9
  8
TOPLAYER
 62
     1
 10
-3.3999995499999991
 20
1.7500028499999991
 30
0.0
 11
-1.5000008099999991
 21
1.7500028499999991
 31
0.0
210
0.0
220
0.0
230
-1.0
  0
LINE
  5
10AA
  8
TOPLAYER
 62
     1
 10
-1.5000008099999991
 20
1.7500028499999991
 30
0.0
 11
-1.5000008099999991
 21
1.0500017099999981
 31
0.0
210
0.0
220
0.0
230
-1.0
  0
LINE
  5
10AB
  8
TOPLAYER
 62
     1
 10
-1.5000008099999991
 20
1.0500017099999981
 30
0.0
 11
-3.3999995499999991
 21
1.0500017099999981
 31
0.0
210
0.0
220
0.0
230
-1.0
  0
LINE
  5
10AC
  8
TOPLAYER
 62
     1
 10
-3.3999995499999991
 20
1.0500017099999981
 30
0.0
 11
-3.3999995499999991
 21
1.7500028499999991
 31
0.0
210
0.0
220
0.0
230
-1.0
  0
ENDBLK
  5
10AE
  8
0
  0
BLOCK
  8
0
  2
*U56
 70
     1
 10
0.0
 20
0.0
 30
0.0
  3
*U56
  1

  0
SOLID
  5
10B0
  8
TOPLAYER
  6
CONTINUOUS
 62
     1
 10
3.3999995499999991
 20
1.7500028499999991
 30
0.0
 11
1.5000008099999991
 21
1.0500017100000001
 31
0.0
 12
3.3999995499999991
 22
1.0500017100000001
 32
0.0
 13
3.3999995499999991
 23
1.0500017100000001
 33
0.0
210
0.0
220
0.0
230
-1.0
  0
SOLID
  5
10B1
  8
TOPLAYER
  6
CONTINUOUS
 62
     1
 10
3.3999995499999991
 20
1.7500028499999991
 30
0.0
 11
1.5000008099999991
 21
1.7500028499999991
 31
0.0
 12
1.5000008099999991
 22
1.0500017100000001
 32
0.0
 13
1.5000008099999991
 23
1.0500017100000001
 33
0.0
210
0.0
220
0.0
230
-1.0
  0
LINE
  5
10B2
  8
TOPLAYER
  6
CONTINUOUS
 62
     1
 10
-3.3999995499999991
 20
1.0500017100000001
 30
0.0
 11
-3.3999995499999991
 21
1.7500028499999991
 31
0.0
  0
LINE
  5
10B3
  8
TOPLAYER
  6
CONTINUOUS
 62
     1
 10
-1.5000008099999991
 20
1.7500028499999991
 30
0.0
 11
-1.5000008099999991
 21
1.0500017100000001
 31
0.0
  0
ENDBLK
  5
10B5
  8
0
  0
BLOCK
  8
0
  2
R_A_SMD_HEADER_8
 70
     0
 10
0.0
 20
0.0
 30
0.0
  3
R_A_SMD_HEADER_8
  1

  0
INSERT
  5
2D6
  8
0
  2
*U58
 10
0.0
 20
0.0
 30
0.0
  0
INSERT
  5
2D7
  8
TOPLAYER
  6
CONTINUOUS
 62
     1
  2
*U59
 10
0.0
 20
0.0
 30
0.0
1001
ACAD
1002
{
1000
R14_HATCH_DATA
1000
2D7
1011
1.0
1021
0.0
1031
0.0
1021
0.0
1031
0.0
1011
0.0
1021
0.0
1031
0.0
1021
1.0
1031
0.0
1011
0.0
1021
0.0
1031
0.0
1021
0.0
1031
1.0
1040
0.0
1010
0.0
1020
0.0
1030
1.0
1000
SOLID
1070
     1
1070
     1
1071
        1
1071
        1
1071
        4
1070
     1
1040
-9.4000027900000003
1040
-1.5849968299999979
1040
-9.4000027900000003
1040
1.585001909999999
1070
     1
1040
-9.4000027900000003
1040
1.585001909999999
1040
-8.3800022900000002
1040
1.585001909999999
1070
     1
1040
-8.3800022900000002
1040
1.585001909999999
1040
-8.3800022900000002
1040
-1.5849968299999979
1070
     1
1040
-8.3800022900000002
1040
-1.5849968299999979
1040
-9.4000027900000003
1040
-1.5849968299999979
1071
        1
1005
2D6
1070
     0
1070
     1
1071
        0
1002
}
  0
INSERT
  5
2DC
  8
0
  2
*U60
 10
0.0
 20
0.0
 30
0.0
  0
INSERT
  5
2DD
  8
TOPLAYER
  6
CONTINUOUS
 62
     1
  2
*U61
 10
0.0
 20
0.0
 30
0.0
1001
ACAD
1002
{
1000
R14_HATCH_DATA
1000
2DD
1011
1.0
1021
0.0
1031
0.0
1021
0.0
1031
0.0
1011
0.0
1021
0.0
1031
0.0
1021
1.0
1031
0.0
1011
0.0
1021
0.0
1031
0.0
1021
0.0
1031
1.0
1040
0.0
1010
0.0
1020
0.0
1030
1.0
1000
SOLID
1070
     1
1070
     1
1071
        1
1071
        1
1071
        4
1070
     1
1040
-1.7800002500000001
1040
-1.58499429
1040
-1.7800002500000001
1040
1.58500445
1070
     1
1040
-1.7800002500000001
1040
1.58500445
1040
-0.75999975
1040
1.58500445
1070
     1
1040
-0.75999975
1040
1.58500445
1040
-0.75999975
1040
-1.58499429
1070
     1
1040
-0.75999975
1040
-1.58499429
1040
-1.7800002500000001
1040
-1.58499429
1071
        1
1005
2DC
1070
     0
1070
     1
1071
        0
1002
}
  0
INSERT
  5
2E2
  8
0
  2
*U62
 10
0.0
 20
0.0
 30
0.0
  0
INSERT
  5
2E3
  8
TOPLAYER
  6
CONTINUOUS
 62
     1
  2
*U63
 10
0.0
 20
0.0
 30
0.0
1001
ACAD
1002
{
1000
R14_HATCH_DATA
1000
2E3
1011
1.0
1021
0.0
1031
0.0
1021
0.0
1031
0.0
1011
0.0
1021
0.0
1031
0.0
1021
1.0
1031
0.0
1011
0.0
1021
0.0
1031
0.0
1021
0.0
1031
1.0
1040
0.0
1010
0.0
1020
0.0
1030
1.0
1000
SOLID
1070
     1
1070
     1
1071
        1
1071
        1
1071
        4
1070
     1
1040
0.75999975
1040
-1.58500445
1040
0.75999975
1040
1.58499429
1070
     1
1040
0.75999975
1040
1.58499429
1040
1.7800002500000001
1040
1.58499429
1070
     1
1040
1.7800002500000001
1040
1.58499429
1040
1.7800002500000001
1040
-1.58500445
1070
     1
1040
1.7800002500000001
1040
-1.58500445
1040
0.75999975
1040
-1.58500445
1071
        1
1005
2E2
1070
     0
1070
     1
1071
        0
1002
}
  0
INSERT
  5
2E8
  8
0
  2
*U64
 10
0.0
 20
0.0
 30
0.0
  0
INSERT
  5
2E9
  8
TOPLAYER
  6
CONTINUOUS
 62
     1
  2
*U65
 10
0.0
 20
0.0
 30
0.0
1001
ACAD
1002
{
1000
R14_HATCH_DATA
1000
2E9
1011
1.0
1021
0.0
1031
0.0
1021
0.0
1031
0.0
1011
0.0
1021
0.0
1031
0.0
1021
1.0
1031
0.0
1011
0.0
1021
0.0
1031
0.0
1021
0.0
1031
1.0
1040
0.0
1010
0.0
1020
0.0
1030
1.0
1000
SOLID
1070
     1
1070
     1
1071
        1
1071
        1
1071
        4
1070
     1
1040
8.3799972099999991
1040
-1.5849968299999979
1040
8.3799972099999991
1040
1.585001909999999
1070
     1
1040
8.3799972099999991
1040
1.585001909999999
1040
9.3999977099999992
1040
1.585001909999999
1070
     1
1040
9.3999977099999992
1040
1.585001909999999
1040
9.3999977099999992
1040
-1.5849968299999979
1070
     1
1040
9.3999977099999992
1040
-1.5849968299999979
1040
8.3799972099999991
1040
-1.5849968299999979
1071
        1
1005
2E8
1070
     0
1070
     1
1071
        0
1002
}
  0
INSERT
  5
2EE
  8
0
  2
*U66
 10
0.0
 20
0.0
 30
0.0
  0
INSERT
  5
2EF
  8
TOPLAYER
  6
CONTINUOUS
 62
     1
  2
*U67
 10
0.0
 20
0.0
 30
0.0
1001
ACAD
1002
{
1000
R14_HATCH_DATA
1000
2EF
1011
1.0
1021
0.0
1031
0.0
1021
0.0
1031
0.0
1011
0.0
1021
0.0
1031
0.0
1021
1.0
1031
0.0
1011
0.0
1021
0.0
1031
0.0
1021
0.0
1031
1.0
1040
0.0
1010
0.0
1020
0.0
1030
1.0
1000
SOLID
1070
     1
1070
     1
1071
        1
1071
        1
1071
        4
1070
     1
1040
-4.3200027900000002
1040
-1.5849968299999979
1040
-4.3200027900000002
1040
1.585001909999999
1070
     1
1040
-4.3200027900000002
1040
1.585001909999999
1040
-3.3000022900000001
1040
1.585001909999999
1070
     1
1040
-3.3000022900000001
1040
1.585001909999999
1040
-3.3000022900000001
1040
-1.5849968299999979
1070
     1
1040
-3.3000022900000001
1040
-1.5849968299999979
1040
-4.3200027900000002
1040
-1.5849968299999979
1071
        1
1005
2EE
1070
     0
1070
     1
1071
        0
1002
}
  0
INSERT
  5
2F4
  8
0
  2
*U68
 10
0.0
 20
0.0
 30
0.0
  0
INSERT
  5
2F5
  8
TOPLAYER
  6
CONTINUOUS
 62
     1
  2
*U69
 10
0.0
 20
0.0
 30
0.0
1001
ACAD
1002
{
1000
R14_HATCH_DATA
1000
2F5
1011
1.0
1021
0.0
1031
0.0
1021
0.0
1031
0.0
1011
0.0
1021
0.0
1031
0.0
1021
1.0
1031
0.0
1011
0.0
1021
0.0
1031
0.0
1021
0.0
1031
1.0
1040
0.0
1010
0.0
1020
0.0
1030
1.0
1000
SOLID
1070
     1
1070
     1
1071
        1
1071
        1
1071
        4
1070
     1
1040
-6.860000249999997
1040
-1.585001909999999
1040
-6.860000249999997
1040
1.5849968299999979
1070
     1
1040
-6.860000249999997
1040
1.5849968299999979
1040
-5.8399997499999987
1040
1.5849968299999979
1070
     1
1040
-5.8399997499999987
1040
1.5849968299999979
1040
-5.8399997499999987
1040
-1.585001909999999
1070
     1
1040
-5.8399997499999987
1040
-1.585001909999999
1040
-6.860000249999997
1040
-1.585001909999999
1071
        1
1005
2F4
1070
     0
1070
     1
1071
        0
1002
}
  0
INSERT
  5
2FA
  8
0
  2
*U70
 10
0.0
 20
0.0
 30
0.0
  0
INSERT
  5
2FB
  8
TOPLAYER
  6
CONTINUOUS
 62
     1
  2
*U71
 10
0.0
 20
0.0
 30
0.0
1001
ACAD
1002
{
1000
R14_HATCH_DATA
1000
2FB
1011
1.0
1021
0.0
1031
0.0
1021
0.0
1031
0.0
1011
0.0
1021
0.0
1031
0.0
1021
1.0
1031
0.0
1011
0.0
1021
0.0
1031
0.0
1021
0.0
1031
1.0
1040
0.0
1010
0.0
1020
0.0
1030
1.0
1000
SOLID
1070
     1
1070
     1
1071
        1
1071
        1
1071
        4
1070
     1
1040
5.8399997499999987
1040
-1.5849968299999979
1040
5.8399997499999987
1040
1.585001909999999
1070
     1
1040
5.8399997499999987
1040
1.585001909999999
1040
6.860000249999997
1040
1.585001909999999
1070
     1
1040
6.860000249999997
1040
1.585001909999999
1040
6.860000249999997
1040
-1.5849968299999979
1070
     1
1040
6.860000249999997
1040
-1.5849968299999979
1040
5.8399997499999987
1040
-1.5849968299999979
1071
        1
1005
2FA
1070
     0
1070
     1
1071
        0
1002
}
  0
INSERT
  5
300
  8
0
  2
*U72
 10
0.0
 20
0.0
 30
0.0
  0
INSERT
  5
301
  8
TOPLAYER
  6
CONTINUOUS
 62
     1
  2
*U73
 10
0.0
 20
0.0
 30
0.0
1001
ACAD
1002
{
1000
R14_HATCH_DATA
1000
301
1011
1.0
1021
0.0
1031
0.0
1021
0.0
1031
0.0
1011
0.0
1021
0.0
1031
0.0
1021
1.0
1031
0.0
1011
0.0
1021
0.0
1031
0.0
1021
0.0
1031
1.0
1040
0.0
1010
0.0
1020
0.0
1030
1.0
1000
SOLID
1070
     1
1070
     1
1071
        1
1071
        1
1071
        4
1070
     1
1040
3.29999975
1040
-1.58499429
1040
3.29999975
1040
1.58500445
1070
     1
1040
3.29999975
1040
1.58500445
1040
4.3200002499999979
1040
1.58500445
1070
     1
1040
4.3200002499999979
1040
1.58500445
1040
4.3200002499999979
1040
-1.58499429
1070
     1
1040
4.3200002499999979
1040
-1.58499429
1040
3.29999975
1040
-1.58499429
1071
        1
1005
300
1070
     0
1070
     1
1071
        0
1002
}
  0
ENDBLK
  5
2D1
  8
0
  0
BLOCK
  8
0
  2
*U58
 70
     1
 10
0.0
 20
0.0
 30
0.0
  3
*U58
  1

  0
LINE
  5
10B7
  8
TOPLAYER
 62
     1
 10
-9.4000027900000003
 20
-1.5849968299999979
 30
0.0
 11
-9.4000027900000003
 21
1.585001909999999
 31
0.0
210
0.0
220
0.0
230
-1.0
  0
LINE
  5
10B8
  8
TOPLAYER
 62
     1
 10
-9.4000027900000003
 20
1.585001909999999
 30
0.0
 11
-8.3800022900000002
 21
1.585001909999999
 31
0.0
210
0.0
220
0.0
230
-1.0
  0
LINE
  5
10B9
  8
TOPLAYER
 62
     1
 10
-8.3800022900000002
 20
1.585001909999999
 30
0.0
 11
-8.3800022900000002
 21
-1.5849968299999979
 31
0.0
210
0.0
220
0.0
230
-1.0
  0
LINE
  5
10BA
  8
TOPLAYER
 62
     1
 10
-8.3800022900000002
 20
-1.5849968299999979
 30
0.0
 11
-9.4000027900000003
 21
-1.5849968299999979
 31
0.0
210
0.0
220
0.0
230
-1.0
  0
ENDBLK
  5
10BC
  8
0
  0
BLOCK
  8
0
  2
*U59
 70
     1
 10
0.0
 20
0.0
 30
0.0
  3
*U59
  1

  0
SOLID
  5
10BE
  8
TOPLAYER
  6
CONTINUOUS
 62
     1
 10
9.4000027900000003
 20
1.585001909999999
 30
0.0
 11
8.3800022900000002
 21
-1.5849968299999979
 31
0.0
 12
9.4000027900000003
 22
-1.5849968299999979
 32
0.0
 13
9.4000027900000003
 23
-1.5849968299999979
 33
0.0
210
0.0
220
0.0
230
-1.0
  0
SOLID
  5
10BF
  8
TOPLAYER
  6
CONTINUOUS
 62
     1
 10
9.4000027900000003
 20
1.585001909999999
 30
0.0
 11
8.3800022900000002
 21
1.585001909999999
 31
0.0
 12
8.3800022900000002
 22
-1.5849968299999979
 32
0.0
 13
8.3800022900000002
 23
-1.5849968299999979
 33
0.0
210
0.0
220
0.0
230
-1.0
  0
LINE
  5
10C0
  8
TOPLAYER
  6
CONTINUOUS
 62
     1
 10
-9.4000027900000003
 20
-1.5849968299999979
 30
0.0
 11
-9.4000027900000003
 21
1.585001909999999
 31
0.0
  0
LINE
  5
10C1
  8
TOPLAYER
  6
CONTINUOUS
 62
     1
 10
-8.3800022900000002
 20
1.585001909999999
 30
0.0
 11
-8.3800022900000002
 21
-1.5849968299999979
 31
0.0
  0
ENDBLK
  5
10C3
  8
0
  0
BLOCK
  8
0
  2
*U60
 70
     1
 10
0.0
 20
0.0
 30
0.0
  3
*U60
  1

  0
LINE
  5
10C5
  8
TOPLAYER
 62
     1
 10
-1.780000249999999
 20
-1.58499429
 30
0.0
 11
-1.780000249999999
 21
1.585004449999998
 31
0.0
210
0.0
220
0.0
230
-1.0
  0
LINE
  5
10C6
  8
TOPLAYER
 62
     1
 10
-1.780000249999999
 20
1.585004449999998
 30
0.0
 11
-0.75999975
 21
1.585004449999998
 31
0.0
210
0.0
220
0.0
230
-1.0
  0
LINE
  5
10C7
  8
TOPLAYER
 62
     1
 10
-0.75999975
 20
1.585004449999998
 30
0.0
 11
-0.75999975
 21
-1.58499429
 31
0.0
210
0.0
220
0.0
230
-1.0
  0
LINE
  5
10C8
  8
TOPLAYER
 62
     1
 10
-0.75999975
 20
-1.58499429
 30
0.0
 11
-1.780000249999999
 21
-1.58499429
 31
0.0
210
0.0
220
0.0
230
-1.0
  0
ENDBLK
  5
10CA
  8
0
  0
BLOCK
  8
0
  2
*U61
 70
     1
 10
0.0
 20
0.0
 30
0.0
  3
*U61
  1

  0
SOLID
  5
10CC
  8
TOPLAYER
  6
CONTINUOUS
 62
     1
 10
1.7800002500000001
 20
1.58500445
 30
0.0
 11
0.75999975
 21
-1.58499429
 31
0.0
 12
1.7800002500000001
 22
-1.58499429
 32
0.0
 13
1.7800002500000001
 23
-1.58499429
 33
0.0
210
0.0
220
0.0
230
-1.0
  0
SOLID
  5
10CD
  8
TOPLAYER
  6
CONTINUOUS
 62
     1
 10
1.7800002500000001
 20
1.58500445
 30
0.0
 11
0.75999975
 21
1.58500445
 31
0.0
 12
0.75999975
 22
-1.58499429
 32
0.0
 13
0.75999975
 23
-1.58499429
 33
0.0
210
0.0
220
0.0
230
-1.0
  0
LINE
  5
10CE
  8
TOPLAYER
  6
CONTINUOUS
 62
     1
 10
-1.7800002500000001
 20
-1.58499429
 30
0.0
 11
-1.7800002500000001
 21
1.58500445
 31
0.0
  0
LINE
  5
10CF
  8
TOPLAYER
  6
CONTINUOUS
 62
     1
 10
-0.75999975
 20
1.58500445
 30
0.0
 11
-0.75999975
 21
-1.58499429
 31
0.0
  0
ENDBLK
  5
10D1
  8
0
  0
BLOCK
  8
0
  2
*U62
 70
     1
 10
0.0
 20
0.0
 30
0.0
  3
*U62
  1

  0
LINE
  5
10D3
  8
TOPLAYER
 62
     1
 10
0.75999975
 20
-1.585004449999998
 30
0.0
 11
0.75999975
 21
1.58499429
 31
0.0
210
0.0
220
0.0
230
-1.0
  0
LINE
  5
10D4
  8
TOPLAYER
 62
     1
 10
0.75999975
 20
1.58499429
 30
0.0
 11
1.780000249999999
 21
1.58499429
 31
0.0
210
0.0
220
0.0
230
-1.0
  0
LINE
  5
10D5
  8
TOPLAYER
 62
     1
 10
1.780000249999999
 20
1.58499429
 30
0.0
 11
1.780000249999999
 21
-1.585004449999998
 31
0.0
210
0.0
220
0.0
230
-1.0
  0
LINE
  5
10D6
  8
TOPLAYER
 62
     1
 10
1.780000249999999
 20
-1.585004449999998
 30
0.0
 11
0.75999975
 21
-1.585004449999998
 31
0.0
210
0.0
220
0.0
230
-1.0
  0
ENDBLK
  5
10D8
  8
0
  0
BLOCK
  8
0
  2
*U63
 70
     1
 10
0.0
 20
0.0
 30
0.0
  3
*U63
  1

  0
SOLID
  5
10DA
  8
TOPLAYER
  6
CONTINUOUS
 62
     1
 10
-0.75999975
 20
1.58499429
 30
0.0
 11
-1.7800002500000001
 21
-1.58500445
 31
0.0
 12
-0.75999975
 22
-1.58500445
 32
0.0
 13
-0.75999975
 23
-1.58500445
 33
0.0
210
0.0
220
0.0
230
-1.0
  0
SOLID
  5
10DB
  8
TOPLAYER
  6
CONTINUOUS
 62
     1
 10
-0.75999975
 20
1.58499429
 30
0.0
 11
-1.7800002500000001
 21
1.58499429
 31
0.0
 12
-1.7800002500000001
 22
-1.58500445
 32
0.0
 13
-1.7800002500000001
 23
-1.58500445
 33
0.0
210
0.0
220
0.0
230
-1.0
  0
LINE
  5
10DC
  8
TOPLAYER
  6
CONTINUOUS
 62
     1
 10
0.75999975
 20
-1.58500445
 30
0.0
 11
0.75999975
 21
1.58499429
 31
0.0
  0
LINE
  5
10DD
  8
TOPLAYER
  6
CONTINUOUS
 62
     1
 10
1.7800002500000001
 20
1.58499429
 30
0.0
 11
1.7800002500000001
 21
-1.58500445
 31
0.0
  0
ENDBLK
  5
10DF
  8
0
  0
BLOCK
  8
0
  2
*U64
 70
     1
 10
0.0
 20
0.0
 30
0.0
  3
*U64
  1

  0
LINE
  5
10E1
  8
TOPLAYER
 62
     1
 10
8.3799972099999991
 20
-1.5849968299999979
 30
0.0
 11
8.3799972099999991
 21
1.585001909999999
 31
0.0
210
0.0
220
0.0
230
-1.0
  0
LINE
  5
10E2
  8
TOPLAYER
 62
     1
 10
8.3799972099999991
 20
1.585001909999999
 30
0.0
 11
9.3999977099999992
 21
1.585001909999999
 31
0.0
210
0.0
220
0.0
230
-1.0
  0
LINE
  5
10E3
  8
TOPLAYER
 62
     1
 10
9.3999977099999992
 20
1.585001909999999
 30
0.0
 11
9.3999977099999992
 21
-1.5849968299999979
 31
0.0
210
0.0
220
0.0
230
-1.0
  0
LINE
  5
10E4
  8
TOPLAYER
 62
     1
 10
9.3999977099999992
 20
-1.5849968299999979
 30
0.0
 11
8.3799972099999991
 21
-1.5849968299999979
 31
0.0
210
0.0
220
0.0
230
-1.0
  0
ENDBLK
  5
10E6
  8
0
  0
BLOCK
  8
0
  2
*U65
 70
     1
 10
0.0
 20
0.0
 30
0.0
  3
*U65
  1

  0
SOLID
  5
10E8
  8
TOPLAYER
  6
CONTINUOUS
 62
     1
 10
-8.3799972099999991
 20
1.585001909999999
 30
0.0
 11
-9.3999977099999992
 21
-1.5849968299999979
 31
0.0
 12
-8.3799972099999991
 22
-1.5849968299999979
 32
0.0
 13
-8.3799972099999991
 23
-1.5849968299999979
 33
0.0
210
0.0
220
0.0
230
-1.0
  0
SOLID
  5
10E9
  8
TOPLAYER
  6
CONTINUOUS
 62
     1
 10
-8.3799972099999991
 20
1.585001909999999
 30
0.0
 11
-9.3999977099999992
 21
1.585001909999999
 31
0.0
 12
-9.3999977099999992
 22
-1.5849968299999979
 32
0.0
 13
-9.3999977099999992
 23
-1.5849968299999979
 33
0.0
210
0.0
220
0.0
230
-1.0
  0
LINE
  5
10EA
  8
TOPLAYER
  6
CONTINUOUS
 62
     1
 10
8.3799972099999991
 20
-1.5849968299999979
 30
0.0
 11
8.3799972099999991
 21
1.585001909999999
 31
0.0
  0
LINE
  5
10EB
  8
TOPLAYER
  6
CONTINUOUS
 62
     1
 10
9.3999977099999992
 20
1.585001909999999
 30
0.0
 11
9.3999977099999992
 21
-1.5849968299999979
 31
0.0
  0
ENDBLK
  5
10ED
  8
0
  0
BLOCK
  8
0
  2
*U66
 70
     1
 10
0.0
 20
0.0
 30
0.0
  3
*U66
  1

  0
LINE
  5
10EF
  8
TOPLAYER
 62
     1
 10
-4.3200027900000002
 20
-1.5849968299999979
 30
0.0
 11
-4.3200027900000002
 21
1.585001909999999
 31
0.0
210
0.0
220
0.0
230
-1.0
  0
LINE
  5
10F0
  8
TOPLAYER
 62
     1
 10
-4.3200027900000002
 20
1.585001909999999
 30
0.0
 11
-3.3000022899999979
 21
1.585001909999999
 31
0.0
210
0.0
220
0.0
230
-1.0
  0
LINE
  5
10F1
  8
TOPLAYER
 62
     1
 10
-3.3000022899999979
 20
1.585001909999999
 30
0.0
 11
-3.3000022899999979
 21
-1.5849968299999979
 31
0.0
210
0.0
220
0.0
230
-1.0
  0
LINE
  5
10F2
  8
TOPLAYER
 62
     1
 10
-3.3000022899999979
 20
-1.5849968299999979
 30
0.0
 11
-4.3200027900000002
 21
-1.5849968299999979
 31
0.0
210
0.0
220
0.0
230
-1.0
  0
ENDBLK
  5
10F4
  8
0
  0
BLOCK
  8
0
  2
*U67
 70
     1
 10
0.0
 20
0.0
 30
0.0
  3
*U67
  1

  0
SOLID
  5
10F6
  8
TOPLAYER
  6
CONTINUOUS
 62
     1
 10
4.3200027900000002
 20
1.585001909999999
 30
0.0
 11
3.3000022900000001
 21
-1.5849968299999979
 31
0.0
 12
4.3200027900000002
 22
-1.5849968299999979
 32
0.0
 13
4.3200027900000002
 23
-1.5849968299999979
 33
0.0
210
0.0
220
0.0
230
-1.0
  0
SOLID
  5
10F7
  8
TOPLAYER
  6
CONTINUOUS
 62
     1
 10
4.3200027900000002
 20
1.585001909999999
 30
0.0
 11
3.3000022900000001
 21
1.585001909999999
 31
0.0
 12
3.3000022900000001
 22
-1.5849968299999979
 32
0.0
 13
3.3000022900000001
 23
-1.5849968299999979
 33
0.0
210
0.0
220
0.0
230
-1.0
  0
LINE
  5
10F8
  8
TOPLAYER
  6
CONTINUOUS
 62
     1
 10
-4.3200027900000002
 20
-1.5849968299999979
 30
0.0
 11
-4.3200027900000002
 21
1.585001909999999
 31
0.0
  0
LINE
  5
10F9
  8
TOPLAYER
  6
CONTINUOUS
 62
     1
 10
-3.3000022900000001
 20
1.585001909999999
 30
0.0
 11
-3.3000022900000001
 21
-1.5849968299999979
 31
0.0
  0
ENDBLK
  5
10FB
  8
0
  0
BLOCK
  8
0
  2
*U68
 70
     1
 10
0.0
 20
0.0
 30
0.0
  3
*U68
  1

  0
LINE
  5
10FD
  8
TOPLAYER
 62
     1
 10
-6.860000249999997
 20
-1.585001909999999
 30
0.0
 11
-6.860000249999997
 21
1.5849968299999979
 31
0.0
210
0.0
220
0.0
230
-1.0
  0
LINE
  5
10FE
  8
TOPLAYER
 62
     1
 10
-6.860000249999997
 20
1.5849968299999979
 30
0.0
 11
-5.8399997499999987
 21
1.5849968299999979
 31
0.0
210
0.0
220
0.0
230
-1.0
  0
LINE
  5
10FF
  8
TOPLAYER
 62
     1
 10
-5.8399997499999987
 20
1.5849968299999979
 30
0.0
 11
-5.8399997499999987
 21
-1.585001909999999
 31
0.0
210
0.0
220
0.0
230
-1.0
  0
LINE
  5
1100
  8
TOPLAYER
 62
     1
 10
-5.8399997499999987
 20
-1.585001909999999
 30
0.0
 11
-6.860000249999997
 21
-1.585001909999999
 31
0.0
210
0.0
220
0.0
230
-1.0
  0
ENDBLK
  5
1102
  8
0
  0
BLOCK
  8
0
  2
*U69
 70
     1
 10
0.0
 20
0.0
 30
0.0
  3
*U69
  1

  0
SOLID
  5
1104
  8
TOPLAYER
  6
CONTINUOUS
 62
     1
 10
6.860000249999997
 20
1.5849968299999979
 30
0.0
 11
5.8399997499999987
 21
-1.585001909999999
 31
0.0
 12
6.860000249999997
 22
-1.585001909999999
 32
0.0
 13
6.860000249999997
 23
-1.585001909999999
 33
0.0
210
0.0
220
0.0
230
-1.0
  0
SOLID
  5
1105
  8
TOPLAYER
  6
CONTINUOUS
 62
     1
 10
6.860000249999997
 20
1.5849968299999979
 30
0.0
 11
5.8399997499999987
 21
1.5849968299999979
 31
0.0
 12
5.8399997499999987
 22
-1.585001909999999
 32
0.0
 13
5.8399997499999987
 23
-1.585001909999999
 33
0.0
210
0.0
220
0.0
230
-1.0
  0
LINE
  5
1106
  8
TOPLAYER
  6
CONTINUOUS
 62
     1
 10
-6.860000249999997
 20
-1.585001909999999
 30
0.0
 11
-6.860000249999997
 21
1.5849968299999979
 31
0.0
  0
LINE
  5
1107
  8
TOPLAYER
  6
CONTINUOUS
 62
     1
 10
-5.8399997499999987
 20
1.5849968299999979
 30
0.0
 11
-5.8399997499999987
 21
-1.585001909999999
 31
0.0
  0
ENDBLK
  5
1109
  8
0
  0
BLOCK
  8
0
  2
*U70
 70
     1
 10
0.0
 20
0.0
 30
0.0
  3
*U70
  1

  0
LINE
  5
110B
  8
TOPLAYER
 62
     1
 10
5.8399997499999987
 20
-1.5849968299999979
 30
0.0
 11
5.8399997499999987
 21
1.585001909999999
 31
0.0
210
0.0
220
0.0
230
-1.0
  0
LINE
  5
110C
  8
TOPLAYER
 62
     1
 10
5.8399997499999987
 20
1.585001909999999
 30
0.0
 11
6.860000249999997
 21
1.585001909999999
 31
0.0
210
0.0
220
0.0
230
-1.0
  0
LINE
  5
110D
  8
TOPLAYER
 62
     1
 10
6.860000249999997
 20
1.585001909999999
 30
0.0
 11
6.860000249999997
 21
-1.5849968299999979
 31
0.0
210
0.0
220
0.0
230
-1.0
  0
LINE
  5
110E
  8
TOPLAYER
 62
     1
 10
6.860000249999997
 20
-1.5849968299999979
 30
0.0
 11
5.8399997499999987
 21
-1.5849968299999979
 31
0.0
210
0.0
220
0.0
230
-1.0
  0
ENDBLK
  5
1110
  8
0
  0
BLOCK
  8
0
  2
*U71
 70
     1
 10
0.0
 20
0.0
 30
0.0
  3
*U71
  1

  0
SOLID
  5
1112
  8
TOPLAYER
  6
CONTINUOUS
 62
     1
 10
-5.8399997499999987
 20
1.585001909999999
 30
0.0
 11
-6.860000249999997
 21
-1.5849968299999979
 31
0.0
 12
-5.8399997499999987
 22
-1.5849968299999979
 32
0.0
 13
-5.8399997499999987
 23
-1.5849968299999979
 33
0.0
210
0.0
220
0.0
230
-1.0
  0
SOLID
  5
1113
  8
TOPLAYER
  6
CONTINUOUS
 62
     1
 10
-5.8399997499999987
 20
1.585001909999999
 30
0.0
 11
-6.860000249999997
 21
1.585001909999999
 31
0.0
 12
-6.860000249999997
 22
-1.5849968299999979
 32
0.0
 13
-6.860000249999997
 23
-1.5849968299999979
 33
0.0
210
0.0
220
0.0
230
-1.0
  0
LINE
  5
1114
  8
TOPLAYER
  6
CONTINUOUS
 62
     1
 10
5.8399997499999987
 20
-1.5849968299999979
 30
0.0
 11
5.8399997499999987
 21
1.585001909999999
 31
0.0
  0
LINE
  5
1115
  8
TOPLAYER
  6
CONTINUOUS
 62
     1
 10
6.860000249999997
 20
1.585001909999999
 30
0.0
 11
6.860000249999997
 21
-1.5849968299999979
 31
0.0
  0
ENDBLK
  5
1117
  8
0
  0
BLOCK
  8
0
  2
*U72
 70
     1
 10
0.0
 20
0.0
 30
0.0
  3
*U72
  1

  0
LINE
  5
1119
  8
TOPLAYER
 62
     1
 10
3.2999997499999991
 20
-1.58499429
 30
0.0
 11
3.2999997499999991
 21
1.585004449999998
 31
0.0
210
0.0
220
0.0
230
-1.0
  0
LINE
  5
111A
  8
TOPLAYER
 62
     1
 10
3.2999997499999991
 20
1.585004449999998
 30
0.0
 11
4.3200002499999979
 21
1.585004449999998
 31
0.0
210
0.0
220
0.0
230
-1.0
  0
LINE
  5
111B
  8
TOPLAYER
 62
     1
 10
4.3200002499999979
 20
1.585004449999998
 30
0.0
 11
4.3200002499999979
 21
-1.58499429
 31
0.0
210
0.0
220
0.0
230
-1.0
  0
LINE
  5
111C
  8
TOPLAYER
 62
     1
 10
4.3200002499999979
 20
-1.58499429
 30
0.0
 11
3.2999997499999991
 21
-1.58499429
 31
0.0
210
0.0
220
0.0
230
-1.0
  0
ENDBLK
  5
111E
  8
0
  0
BLOCK
  8
0
  2
*U73
 70
     1
 10
0.0
 20
0.0
 30
0.0
  3
*U73
  1

  0
SOLID
  5
1120
  8
TOPLAYER
  6
CONTINUOUS
 62
     1
 10
-3.29999975
 20
1.58500445
 30
0.0
 11
-4.3200002499999979
 21
-1.58499429
 31
0.0
 12
-3.29999975
 22
-1.58499429
 32
0.0
 13
-3.29999975
 23
-1.58499429
 33
0.0
210
0.0
220
0.0
230
-1.0
  0
SOLID
  5
1121
  8
TOPLAYER
  6
CONTINUOUS
 62
     1
 10
-3.29999975
 20
1.58500445
 30
0.0
 11
-4.3200002499999979
 21
1.58500445
 31
0.0
 12
-4.3200002499999979
 22
-1.58499429
 32
0.0
 13
-4.3200002499999979
 23
-1.58499429
 33
0.0
210
0.0
220
0.0
230
-1.0
  0
LINE
  5
1122
  8
TOPLAYER
  6
CONTINUOUS
 62
     1
 10
3.29999975
 20
-1.58499429
 30
0.0
 11
3.29999975
 21
1.58500445
 31
0.0
  0
LINE
  5
1123
  8
TOPLAYER
  6
CONTINUOUS
 62
     1
 10
4.3200002499999979
 20
1.58500445
 30
0.0
 11
4.3200002499999979
 21
-1.58499429
 31
0.0
  0
ENDBLK
  5
1125
  8
0
  0
ENDSEC
  0
SECTION
  2
ENTITIES
  0
ARC
  5
657
  8
MECHANICAL30
 10
0.0
 20
42.3000017599999865
 30
0.0
 40
0.02499868
 50
180.0
 51
0.0
  0
ARC
  5
658
  8
MECHANICAL30
 10
0.0
 20
42.3000017599999865
 30
0.0
 40
0.02499868
 50
0.0
 51
180.0
  0
ARC
  5
659
  8
MECHANICAL30
 10
219.6000002199999983
 20
42.3000017599999865
 30
0.0
 40
0.0249986800000102
 50
180.0
 51
0.0
  0
ARC
  5
65A
  8
MECHANICAL30
 10
219.6000002199999983
 20
42.3000017599999865
 30
0.0
 40
0.0249986800000102
 50
0.0
 51
180.0
  0
ARC
  5
65C
  8
MECHANICAL30
 10
219.6000002199999983
 20
0.0
 30
0.0
 40
0.0249986800000102
 50
180.0
 51
0.0
  0
ARC
  5
65D
  8
MECHANICAL30
 10
219.6000002199999983
 20
0.0
 30
0.0
 40
0.0249986800000102
 50
0.0
 51
180.0
  0
ARC
  5
661
  8
MECHANICAL30
 10
0.0
 20
0.0
 30
0.0
 40
0.02499868
 50
180.0
 51
0.0
  0
ARC
  5
662
  8
MECHANICAL30
 10
0.0
 20
0.0
 30
0.0
 40
0.02499868
 50
0.0
 51
180.0
  0
POLYLINE
  5
CF1
  8
MECHANICAL30
 66
     1
 10
0.0
 20
0.0
 30
0.0
 70
     1
  0
VERTEX
  5
1562
  8
MECHANICAL30
 10
0.02499868
 20
42.3000017599999865
 30
0.0
 42
0.9999999999999998
  0
VERTEX
  5
1563
  8
MECHANICAL30
 10
-0.02499868
 20
42.3000017599999865
 30
0.0
 42
0.9999999999999998
  0
SEQEND
  5
1564
  8
MECHANICAL30
  0
POLYLINE
  5
CF2
  8
MECHANICAL30
 66
     1
 10
0.0
 20
0.0
 30
0.0
 70
     1
  0
VERTEX
  5
1565
  8
MECHANICAL30
 10
0.02499868
 20
0.0
 30
0.0
 42
0.9999999999999998
  0
VERTEX
  5
1566
  8
MECHANICAL30
 10
-0.02499868
 20
0.0
 30
0.0
 42
0.9999999999999998
  0
SEQEND
  5
1567
  8
MECHANICAL30
  0
POLYLINE
  5
CF3
  8
MECHANICAL30
 66
     1
 10
0.0
 20
0.0
 30
0.0
 70
     1
  0
VERTEX
  5
1568
  8
MECHANICAL30
 10
219.6249989000000085
 20
0.0
 30
0.0
 42
0.9999999999999998
  0
VERTEX
  5
1569
  8
MECHANICAL30
 10
219.5750015399999882
 20
0.0
 30
0.0
 42
0.9999999999999998
  0
SEQEND
  5
156A
  8
MECHANICAL30
  0
POLYLINE
  5
CF4
  8
MECHANICAL30
 66
     1
 10
0.0
 20
0.0
 30
0.0
 70
     1
  0
VERTEX
  5
156B
  8
MECHANICAL30
 10
219.6249989000000085
 20
42.3000017599999865
 30
0.0
 42
0.9999999999999998
  0
VERTEX
  5
156C
  8
MECHANICAL30
 10
219.5750015399999882
 20
42.3000017599999865
 30
0.0
 42
0.9999999999999998
  0
SEQEND
  5
156D
  8
MECHANICAL30
  0
POLYLINE
  5
1546
  8
0
 66
     1
 10
0.0
 20
0.0
 30
0.0
 70
     1
  0
VERTEX
  5
15B0
  8
0
 10
88.2640005100000025
 20
4.8059987700000004
 30
0.0
  0
VERTEX
  5
15B1
  8
0
 10
88.2640005100000025
 20
4.0059978300000001
 30
0.0
  0
VERTEX
  5
15B2
  8
0
 10
89.1640012499999983
 20
4.0059978300000001
 30
0.0
  0
VERTEX
  5
15B3
  8
0
 10
89.1640012499999983
 20
4.8059987700000004
 30
0.0
  0
SEQEND
  5
15B4
  8
0
  0
POLYLINE
  5
1547
  8
0
 66
     1
 10
0.0
 20
0.0
 30
0.0
 70
     1
  0
VERTEX
  5
15B5
  8
0
 10
88.9449991399999789
 20
8.3379983100000015
 30
0.0
  0
VERTEX
  5
15B6
  8
0
 10
88.9449991399999789
 20
6.3060008500000002
 30
0.0
  0
VERTEX
  5
15B7
  8
0
 10
89.1640012499999983
 20
6.3060008500000002
 30
0.0
  0
VERTEX
  5
15B8
  8
0
 10
89.1640012499999983
 20
5.5059999099999981
 30
0.0
  0
VERTEX
  5
15B9
  8
0
 10
88.2640005100000025
 20
5.5059999099999981
 30
0.0
  0
VERTEX
  5
15BA
  8
0
 10
88.2640005100000025
 20
6.3060008500000002
 30
0.0
  0
VERTEX
  5
15BB
  8
0
 10
88.4449991399999789
 20
6.3060008500000011
 30
0.0
  0
VERTEX
  5
15BC
  8
0
 10
88.4449991399999931
 20
8.3379983099999961
 30
0.0
  0
VERTEX
  5
15BD
  8
0
 10
88.2449987699999951
 20
8.3379983099999961
 30
0.0
  0
VERTEX
  5
15BE
  8
0
 10
88.2449987699999951
 20
9.13799925
 30
0.0
  0
VERTEX
  5
15BF
  8
0
 10
89.1449995099999768
 20
9.13799925
 30
0.0
  0
VERTEX
  5
15C0
  8
0
 10
89.1449995099999768
 20
8.3379983099999961
 30
0.0
  0
SEQEND
  5
15C1
  8
0
  0
POLYLINE
  5
1548
  8
0
 66
     1
 10
0.0
 20
0.0
 30
0.0
 70
     1
  0
VERTEX
  5
15C2
  8
0
 10
88.2449987699999951
 20
10.6380013299999998
 30
0.0
  0
VERTEX
  5
15C3
  8
0
 10
88.2449987699999951
 20
9.8380003899999995
 30
0.0
  0
VERTEX
  5
15C4
  8
0
 10
89.1449995099999768
 20
9.8380003899999995
 30
0.0
  0
VERTEX
  5
15C5
  8
0
 10
89.1449995099999768
 20
10.6380013299999998
 30
0.0
  0
SEQEND
  5
15C6
  8
0
  0
POLYLINE
  5
154A
  8
0
 66
     1
 10
0.0
 20
0.0
 30
0.0
 70
     1
  0
VERTEX
  5
15C7
  8
0
 10
83.5430109242438448
 20
12.6949637398638497
 30
0.0
  0
VERTEX
  5
15C8
  8
0
 10
93.5430109242438448
 20
12.6949637398638497
 30
0.0
  0
VERTEX
  5
15C9
  8
0
 10
93.5430109242438448
 20
2.6949637398638511
 30
0.0
  0
VERTEX
  5
15CA
  8
0
 10
83.5430109242438448
 20
2.6949637398638511
 30
0.0
  0
SEQEND
  5
15CB
  8
0
  0
ENDSEC
  0
EOF
